/* XPM */
static char *exit[] = {
/* columns rows colors chars-per-pixel */
"32 32 161 2",
"   c #750000",
".  c #7B0303",
"X  c #840909",
"o  c #981111",
"O  c #AD1B1B",
"+  c #B11D1D",
"@  c #992727",
"#  c #A82525",
"$  c #A62E2E",
"%  c #AB2D2D",
"&  c #B72121",
"*  c #BC2323",
"=  c #B52C2C",
"-  c #BA2B2B",
";  c #A53535",
":  c #AB3333",
">  c #A53B3B",
",  c #B23434",
"<  c #B43939",
"1  c #BB3B3B",
"2  c #C12727",
"3  c #C52A2A",
"4  c #CA2E2E",
"5  c #C73232",
"6  c #CE3131",
"7  c #C43C3C",
"8  c #CD3C3C",
"9  c #D43535",
"0  c #D53D3D",
"q  c #DB3A3A",
"w  c #E13E3E",
"e  c #974444",
"r  c #935050",
"t  c #A54040",
"y  c #AA4242",
"u  c #B44E4E",
"i  c #A75353",
"p  c #AA5252",
"a  c #A35858",
"s  c #B95757",
"d  c #B15858",
"f  c #9C6767",
"g  c #B16363",
"h  c #BB6C6C",
"j  c #BB7575",
"k  c #B27979",
"l  c #BD7C7C",
"z  c #C44646",
"x  c #D44444",
"c  c #DB4444",
"v  c #D34B4B",
"b  c #DA4A4A",
"n  c #C35353",
"m  c #C85252",
"M  c #C95858",
"N  c #D45151",
"B  c #D95353",
"V  c #D55959",
"C  c #D85B5B",
"Z  c #E54242",
"A  c #EB4545",
"S  c #E54B4B",
"D  c #EC4949",
"F  c #F44B4B",
"G  c #F94F4F",
"H  c #E55454",
"J  c #E95757",
"K  c #E45B5B",
"L  c #E85F5F",
"P  c #FC5252",
"I  c #F15F5F",
"U  c #C36060",
"Y  c #CA6565",
"T  c #CE6E6E",
"R  c #D56262",
"E  c #D96565",
"W  c #D76C6C",
"Q  c #DA6E6E",
"!  c #CF7575",
"~  c #C37D7D",
"^  c #CB7E7E",
"/  c #D47373",
"(  c #DC7474",
")  c #D07878",
"_  c #DD7A7A",
"`  c #E46464",
"'  c #EA6464",
"]  c #E46C6C",
"[  c #E86F6F",
"{  c #F16060",
"}  c #E37575",
"|  c #E27C7C",
" . c #ED7B7B",
".. c #F07373",
"X. c #B58E8E",
"o. c #B69191",
"O. c #BC9C9C",
"+. c #CE8383",
"@. c #C38E8E",
"#. c #D38383",
"$. c #DD8080",
"%. c #D78D8D",
"&. c #D88F8F",
"*. c #DA9393",
"=. c #D39A9A",
"-. c #DB9999",
";. c #E18383",
":. c #EE8585",
">. c #EE8D8D",
",. c #F08484",
"<. c #E69696",
"1. c #EE9595",
"2. c #E19B9B",
"3. c #EE9E9E",
"4. c #F49292",
"5. c #F09D9D",
"6. c #C6A3A3",
"7. c #CCA7A7",
"8. c #CEA9A9",
"9. c #D2A5A5",
"0. c #DEA2A2",
"q. c #D3ABAB",
"w. c #DFA9A9",
"e. c #DAB4B4",
"r. c #D2BEBE",
"t. c #DCB8B8",
"y. c #E3A4A4",
"u. c #ECA6A6",
"i. c #ECACAC",
"p. c #F0A6A6",
"a. c #E7B5B5",
"s. c #EDB6B6",
"d. c #E2B9B9",
"f. c #EBBBBB",
"g. c #F0B0B0",
"h. c #F7BCBC",
"j. c #F8B9B9",
"k. c #D7C1C1",
"l. c #DCC4C4",
"z. c #DECECE",
"x. c #E3C6C6",
"c. c #EAC5C5",
"v. c #E3CECE",
"b. c #EECCCC",
"n. c #F1CDCD",
"m. c #FBCFCF",
"M. c #E7D2D2",
"N. c #E9D5D5",
"B. c #F2D6D6",
"V. c #FBD0D0",
"C. c #F2D9D9",
"Z. c #FBDEDE",
"A. c #E9E0E0",
"S. c #F1E5E5",
"D. c #F9E1E1",
"F. c #F5ECEC",
"G. c #F9EDED",
"H. c #F6F0F0",
"J. c #FAF4F4",
"K. c #FFFFFF",
"L. c None",
/* pixels */
"L.L.                                                        L.L.",
"L.X 5 P P P P P P P P P P P P P P P P P P P P P P P P P P 5 X L.",
"  5 F 9 & + + + + + + + + & * * * 2 3 3 4 4 6 6 9 9 9 q A P 5   ",
"  F 9 n -.0.0.0.0.0.0.0.y.y.y.y.y.y.y.u.u.u.i.i.i.i.i.u.] A F   ",
"  P & -.0.0.0.0.0.y.y.y.a.b.C.F.S.M.c.f.i.i.i.i.i.i.g.g.p.w P   ",
"  P + *.-.-.-.-.-.-.f.J.K.K.K.K.K.K.K.K.J.e.u.u.u.u.u.p.p.w P   ",
"  G + %.%.%.%.&.-.C.K.K.K.K.K.K.K.K.K.K.K.K.v.2.3.3.3.3.5.Z G   ",
"  G + #.#.#.#.y.J.K.K.K.K.A.r.O.6.k.A.K.K.K.K.F.=.1.1.1.1.Z G   ",
"  F + ! ! ) #.J.K.K.K.z.f h ) $.;.;.$.#.N.K.K.K.F.~ >.>.>.Z F   ",
"  F + = Y T b.K.K.J.o.a / _ _ _ | | | | | w.J.K.K.l._ :.,.A F   ",
"  F + + * *.K.K.K.X.d W Q Q ( <.<.} } } } } i.K.K.K.@. . .A F   ",
"  D + + & G.K.K.z.e R R E E s.K.K.q.E ] ] [ [ B.K.K.H.U ..A D   ",
"  A + & z K.K.K.r m V V C C G.K.K.F.u ` ` ` '  .K.K.K.g ' A A   ",
"  A & * / K.K.N.@ v v N N B J.K.K.J.t K K K L L D.K.K.l A D A   ",
"  Z * * y.K.K.7.# 4 8 x v b J.K.K.J.> H H H J J h.K.K.9.c F Z   ",
"  Z * * n.K.K.k - 6 6 9 0 0 J.K.K.J.; S S S D A 4.K.K.v.7 F Z   ",
"  w 2 2 n.K.K.k 4 6 9 9 9 q J.K.K.J.$ Z Z Z A A 4.K.K.M.1 F w   ",
"  q 2 3 y.K.K.8.- 9 9 9 q q J.K.K.J.$ Z Z A A A j.K.K.9.8 F q   ",
"  q 3 3 _ K.K.N.% 9 9 q q q J.K.K.J.: Z A A A D Z.K.K.l Z F q   ",
"  9 3 4 N K.K.K.y 9 q q q q J.K.K.J.: A A A D I K.K.K.p F G 9   ",
"  9 4 4 6 G.K.K.l.5 q q q w n.K.K.x., A A D F V.K.K.F.: G G 9   ",
"  6 4 6 6 _ K.K.K.~ q q w w ' x.x.i 0 A D F 4.K.K.K.j x G G 6   ",
"  4 6 9 9 9 f.K.K.J.+.q w Z Z Z 0 Z A D F 4.J.K.K.t.< G P P 4   ",
"  4 6 9 9 9 b F.K.K.K.x.B Z Z A A A D { m.K.K.K.F.t D P P P 4   ",
"  3 9 9 9 q q ] F.K.K.K.K.C.s.>.4.j.Z.K.K.K.K.F.g x P P P P 3   ",
"  2 9 9 q q q q b d.K.K.K.K.K.K.K.K.K.K.K.K.t.y c P P P P P 2   ",
"  * 9 q q q q w w Z _ F.K.K.K.K.K.K.K.K.F.j 1 F P P P P P P *   ",
"  & 9 q q q w w Z Z Z Z M ^ 9.M.M.9.l s 7 c G P P P P P P G &   ",
"  + 4 q q w w Z Z Z A A A D F A c Z F G G G P P P P P P P q +   ",
"  o + 4 q w w Z Z Z A A A D D F F F F F G G G G P P P G q & o   ",
"L.. o O + + + + + + + + + + + + + + + + + + + + + + + + O o . L.",
"L.L.                                                        L.L."
};
