/* XPM */
static char *fileclose[] = {
/* columns rows colors chars-per-pixel */
"32 32 122 2",
"   c #292946",
".  c #2A2A47",
"X  c #2B2B48",
"o  c #2C2C49",
"O  c #2D2D4B",
"+  c #2E2E4C",
"@  c #2F2F4D",
"#  c #31314F",
"$  c #323250",
"%  c #333351",
"&  c #343452",
"*  c #353553",
"=  c #363654",
"-  c #373756",
";  c #383857",
":  c #393958",
">  c #3A3A59",
",  c #3B3B5A",
"<  c #3C3C5C",
"1  c #3D3D5D",
"2  c #3F3F5F",
"3  c #414160",
"4  c #424261",
"5  c #434362",
"6  c #444463",
"7  c #464665",
"8  c #474766",
"9  c #484868",
"0  c #494969",
"q  c #4B4B6B",
"w  c #4C4C6C",
"e  c #4E4E6E",
"r  c #525272",
"t  c #535373",
"y  c #545474",
"u  c #555575",
"i  c #565676",
"p  c #575777",
"a  c #585878",
"s  c #595979",
"d  c #5B5B7B",
"f  c #5D5D7D",
"g  c #5F5F7F",
"h  c #60607F",
"j  c #636382",
"k  c #646483",
"l  c #656584",
"z  c #666685",
"x  c #676786",
"c  c #686887",
"v  c #6A6A89",
"b  c #6B6B8A",
"n  c #6C6C8B",
"m  c #6D6D8B",
"M  c #6E6E8C",
"N  c #70708E",
"B  c #727290",
"V  c #757592",
"C  c #767693",
"Z  c #787895",
"A  c #797996",
"S  c #7A7A97",
"D  c #7C7C99",
"F  c #7D7D99",
"G  c #7E7E9A",
"H  c #80809C",
"J  c #81819D",
"K  c #84849F",
"L  c #8686A1",
"P  c #8787A2",
"I  c #8C8CA7",
"U  c #8E8EA8",
"Y  c #9191AB",
"T  c #9494AD",
"R  c #9595AE",
"E  c #9696AF",
"W  c #9C9CB3",
"Q  c #9D9DB4",
"!  c #9E9EB5",
"~  c #9F9FB7",
"^  c #A0A0B7",
"/  c #A5A5BB",
"(  c #A8A8BD",
")  c #ACACC0",
"_  c #AFAFC3",
"`  c #B0B0C4",
"'  c #B4B4C7",
"]  c #B6B6C9",
"[  c #B7B7C9",
"{  c #B8B8CA",
"}  c #BABACB",
"|  c #BCBCCD",
" . c #BDBDCE",
".. c #BEBECF",
"X. c #C1C1D1",
"o. c #C3C3D3",
"O. c #C4C4D3",
"+. c #C5C5D4",
"@. c #C7C7D6",
"#. c #C8C8D6",
"$. c #CACAD8",
"%. c #CBCBD8",
"&. c #CCCCDA",
"*. c #CFCFDC",
"=. c #D1D1DD",
"-. c #D2D2DE",
";. c #D3D3DF",
":. c #D4D4DF",
">. c #D7D7E1",
",. c #DBDBE5",
"<. c #DCDCE5",
"1. c #DDDDE6",
"2. c #E0E0E8",
"3. c #E1E1E9",
"4. c #E3E3EB",
"5. c #E4E4EC",
"6. c #E5E5EC",
"7. c #E6E6ED",
"8. c #F1F1F5",
"9. c #F3F3F6",
"0. c #FEFEFF",
"q. c None",
/* pixels */
"q.q.q.q.q.q.q.q.q.q.q.q.q.q.q.q.q.q.q.q.q.q.q.q.q.q.q.q.q.q.q.q.",
"q.q.q.q.q.q.q.q.q.q.q.q.q.q.q.q.q.q.q.q.q.q.q.q.q.q.q.q.q.q.q.q.",
"q.q.q.q.q.q.q.q.q.q.q.q.q., , > > : : q.q.q.q.q.q.q.q.q.q.q.q.q.",
"q.q.q.q.q.q.q.q.q.q.< , , < 3 3 2 2 > ; - = q.q.q.q.q.q.q.q.q.q.",
"q.q.q.q.q.q.q.q.< < < 7 k ! ( =.=. .( M 5 ; * * q.q.q.q.q.q.q.q.",
"q.q.q.q.q.q.q.< < 7 A $.8.8.8.8.8.8.8.8.1.I 4 * & q.q.q.q.q.q.q.",
"q.q.q.q.q.q.< 1 u { 7.7.7.7.7.7.7.7.7.7.7.7.%.l = % q.q.q.q.q.q.",
"q.q.q.q.q.< 1 p X.,.,.,.,.,.,.,.,.,.,.,.,.,.,.-.Z * % q.q.q.q.q.",
"q.q.q.q.< < t { *.*.` >.*.*.*.*.*.*.*.*.@.2.*.*.#.h $ $ q.q.q.q.",
"q.q.q.q.< 7 ^ O.O.~ <.0.,.O.O.O.O.O.O.[ 9.0.,.O.O.] 9 # q.q.q.q.",
"q.q.q.< < v { { ~ <.0.0.0.:.{ { { { _ 9.0.0.0.:.{ { K % @ q.q.q.",
"q.q.q., 7 E ) ) ..0.0.0.0.0.&.) ) ( 9.0.0.0.0.6.) Q J 2 @ q.q.q.",
"q.q.q., p ^ ^ ^ ^ o.0.0.0.0.0.+.^ 9.0.0.0.0.5.F f r r w @ q.q.q.",
"q.q., < b T T T T T | 0.0.0.0.0.9.0.0.0.0.2.f r r r r r # + q.q.",
"q.q.> 3 m P P P P P P ' 0.0.0.0.0.0.0.0.2.f r r r r r r - O q.q.",
"q.q.> 3 z S S S S S S S ) 0.0.0.0.0.0.2.f r r r r r r r - O q.q.",
"q.q.> 2 g m m m m m m m J 9.0.0.0.0.0.^ r r r r r r r r - o q.q.",
"q.q.: 2 s g g g g g g Z 9.0.0.0.0.0.0.0.R r r r r r r r = X q.q.",
"q.q.: > y i i i i i B 9.0.0.0.0.0.0.0.0.0.R r r r r r r O X q.q.",
"q.q.q.; e y y y y N 9.0.0.0.0.2.^ 0.0.0.0.0.R t t t t q X q.q.q.",
"q.q.q.= 5 y y y N 9.0.0.0.0.2.g y E 0.0.0.0.0.E y y y 1 . q.q.q.",
"q.q.q.= ; s d d Y 0.0.0.0.3.z d d d W 0.0.0.0.} d d a O . q.q.q.",
"q.q.q.q.* 0 k k k ^ 0.0.4.M k k k k k ^ 0.0.@.k k k 6 . q.q.q.q.",
"q.q.q.q.* & d n n n / ;.C n n n n n n n / X.n n n a .   q.q.q.q.",
"q.q.q.q.q.& - c V V V V V V V V V V V V V V V V x +   q.q.q.q.q.",
"q.q.q.q.q.q.% - l G G G G G G G G G G G G G G j @   q.q.q.q.q.q.",
"q.q.q.q.q.q.q.$ $ i J L L L L L L L L L L H t .   q.q.q.q.q.q.q.",
"q.q.q.q.q.q.q.q.# # = s F U U U U U U D p # .   q.q.q.q.q.q.q.q.",
"q.q.q.q.q.q.q.q.q.q.@ @ + * 0 9 9 8 X X . . q.q.q.q.q.q.q.q.q.q.",
"q.q.q.q.q.q.q.q.q.q.q.q.q.+ O O o X X q.q.q.q.q.q.q.q.q.q.q.q.q.",
"q.q.q.q.q.q.q.q.q.q.q.q.q.q.q.q.q.q.q.q.q.q.q.q.q.q.q.q.q.q.q.q.",
"q.q.q.q.q.q.q.q.q.q.q.q.q.q.q.q.q.q.q.q.q.q.q.q.q.q.q.q.q.q.q.q."
};
