/* XPM */
static char *folder_orange_open[] = {
/* columns rows colors chars-per-pixel */
"32 32 205 2",
"   c #6D4B09",
".  c #755207",
"X  c #7F5907",
"o  c #7C550D",
"O  c #734917",
"+  c #855715",
"@  c #9E6E0A",
"#  c #A17109",
"$  c #AF7A09",
"%  c #A47210",
"&  c #AB7414",
"*  c #AD7E15",
"=  c #B07612",
"-  c #B27B10",
";  c #B0731C",
":  c #B77A19",
">  c #BF7F19",
",  c #AB6F21",
"<  c #B27322",
"1  c #BD7A23",
"2  c #C57F25",
"3  c #BC830A",
"4  c #BC880A",
"5  c #B0821E",
"6  c #BB8422",
"7  c #B28628",
"8  c #B88B2C",
"9  c #B68D36",
"0  c #C98D0B",
"q  c #D48A09",
"w  c #DC940A",
"e  c #C2821E",
"r  c #E0970A",
"t  c #E29B0A",
"y  c #E6A50A",
"u  c #E6AB0A",
"i  c #E9AA0B",
"p  c #EEAD10",
"a  c #EBA61F",
"s  c #FEB916",
"d  c #F3B31B",
"f  c #FFB51B",
"g  c #FCB91F",
"h  c #C78321",
"j  c #C3842B",
"k  c #C98029",
"l  c #D1862B",
"z  c #C6912C",
"x  c #CD8B33",
"c  c #CE893E",
"v  c #D78637",
"b  c #DA8A34",
"n  c #D9853B",
"m  c #D78D3D",
"M  c #DF8B39",
"N  c #CE933E",
"B  c #D6903C",
"V  c #E09A20",
"C  c #E68D3E",
"Z  c #E1963D",
"A  c #FFAA25",
"S  c #FFAC2A",
"D  c #FFB223",
"F  c #FFB42B",
"G  c #FCB92A",
"H  c #FFAF31",
"J  c #FFAF3C",
"K  c #FFB233",
"L  c #FFB53C",
"P  c #B99543",
"I  c #CB9A45",
"U  c #D79745",
"Y  c #D29A4A",
"T  c #C59D51",
"R  c #EA8E43",
"E  c #E59649",
"W  c #E8944A",
"Q  c #E99B4E",
"!  c #EC9F5A",
"~  c #F09951",
"^  c #F19E5B",
"/  c #D4A04E",
"(  c #D7AC4F",
")  c #DFB545",
"_  c #D0A354",
"`  c #DFA955",
"'  c #D1A45D",
"]  c #E5A243",
"[  c #E2AB4A",
"{  c #F4A84E",
"}  c #FFB444",
"|  c #FFBA41",
" . c #FFB24D",
".. c #FFB94B",
"X. c #E7A15D",
"o. c #ECA15C",
"O. c #F0A154",
"+. c #FFB254",
"@. c #FFB854",
"#. c #FEB45C",
"$. c #FEBA5B",
"%. c #DDA761",
"&. c #DDAA69",
"*. c #DAB472",
"=. c #E4A766",
"-. c #ECA662",
";. c #E3A863",
":. c #EEAA6E",
">. c #F4A260",
",. c #F3A961",
"<. c #F4A768",
"1. c #F5A86A",
"2. c #FEB564",
"3. c #FEBC65",
"4. c #FEB56A",
"5. c #FEB86A",
"6. c #F4AD73",
"7. c #E7B273",
"8. c #E9B87F",
"9. c #FEB274",
"0. c #FEBC74",
"q. c #FDB37C",
"w. c #FEBC79",
"e. c #F4C044",
"r. c #F8C65A",
"t. c #E4C676",
"y. c #FBC674",
"u. c #F7C079",
"i. c #FEC07E",
"p. c #FDCE7A",
"a. c #C5B585",
"s. c #CBBA8D",
"d. c #ECBD83",
"f. c #F7B681",
"g. c #F0BA86",
"h. c #FFBB85",
"j. c #FFBD8D",
"k. c #FEBD91",
"l. c #D5C49B",
"z. c #ECCF80",
"x. c #E9C08B",
"c. c #FFC083",
"v. c #F4C288",
"b. c #FFC28E",
"n. c #E2C690",
"m. c #EDCC96",
"M. c #F7C497",
"N. c #FFC394",
"B. c #FFC995",
"V. c #FEC49E",
"C. c #F2C99C",
"Z. c #FDCB9D",
"A. c #FED39E",
"S. c #CECBB2",
"D. c #DCD3B0",
"F. c #D2D1BE",
"G. c #E2CFAA",
"H. c #FEC6A0",
"J. c #F3CDA4",
"K. c #FCCAA4",
"L. c #FEC6A8",
"P. c #FFC9AB",
"I. c #F6D7A0",
"U. c #F8D2A6",
"Y. c #FDD3AD",
"T. c #F2DCA8",
"R. c #FFDBAD",
"E. c #FFCCB3",
"W. c #FECFBA",
"Q. c #EFD9B9",
"!. c #FED3B0",
"~. c #FFDDB1",
"^. c #FED1BE",
"/. c #F6D9BA",
"(. c #FDDABC",
"). c #D5D5C3",
"_. c #DBDBCC",
"`. c #E2DDCC",
"'. c #FFD1C1",
"]. c #FFDBC5",
"[. c #FED6CB",
"{. c #FFD9CD",
"}. c #FEDBD4",
"|. c #FFDFDD",
" X c #E5E0CB",
".X c #FDE2C3",
"XX c #E1E1D3",
"oX c #E6E6D9",
"OX c #EAE9DE",
"+X c #FFE1D1",
"@X c #FEE9D4",
"#X c #FFE2DD",
"$X c #F0EBDC",
"%X c #EDEDE3",
"&X c #FFE5E3",
"*X c #FFEEE3",
"=X c #FFECEC",
"-X c #FFF0E7",
";X c #F3F3EB",
":X c #FEF5EC",
">X c #FCF8EE",
",X c #FFF5F4",
"<X c #FBF9F5",
"1X c #FFFEFE",
"2X c None",
/* pixels */
"2X2X2X2X2X2X2X2X2X2X2X2X2X2X2X2X2X2X2X2X2X> _ & 2X2X2X2X2X2X2X2X",
"2X2X2X2X2X2X2X2X2X2X2X2X2X2X2X2X2X2X2Xe / u.A.= 2X2X2X2X2X2X2X2X",
"2X2X2X2X2X2X2X2X2X2X2X2X2X2X2X2X2Xh N v.0.2.#.I 2X2X2X2X- z 2X2X",
"2X2X2X2X2X2X2X2X2X2X2X2X2X2X2X2Xx d.j.9.4.2.#.`   2X2X6 n.( 2X2X",
"2X2X2X2X2X2X2X2X2X2X2X2X2X2Xl d.K.h.q.9.4.2.#.y.% : *.I.V 0 2X2X",
"2X2X2X2X2XC W M 2X2X2X2Xl 7.Y.V.k.h.q.9.4.2.#.] Y m.[ q t 3 2X2X",
"2X2X2XR o.(.<X&XK.c l ;.Y.W.L.V.k.h.q.9.4.{ B m.p.w q q i 4 2X2X",
"2X2X~ K.1X,X=X=X&X].].{.^.E.L.V.k.h.q.4.Z x.A.K K r q r i 4 2X2X",
"2X~ *X1X1X,X=X=X&X#X}.[.^.E.L.V.k.h.O.=.~.$.K S S a q i i $ 2X2X",
"2Xf.1X1X1X,X=X=X&X#X}.[.^.E.L.V.h.E U.B.+.} K S A F t i i @ 2X2X",
"2X<.1X1X1X,X=X=X&X#X}.[.^.E.L.V.,.Y.w.#. .L H S A F p y u @ 2X2X",
"2X^ 1X1X1X,X=X=X&X#X}.[.^.E.L.V.Q ].5.#. .J S S A f d u u @ 2X2X",
"~ *X1X1X1X,X=X=X&X#X}.[.^.E.L.N.X.Z.5.#. .J S D f f g i u # 2X2X",
"R ,X1X1X1X,X=X=X&X#X}.[.^.E.N.Q (.w.4.#. .J F f f f s d ) 8 2X2X",
"2XK.1X1X1X,X=X=X&X#X}.[.^.q.-..XB.w.4.+.} K D g f s g t.F.9 2X2X",
"2X! 1X1X1X,X=X=X&X#X}.E.^ Z.+XN.h.0.2. .L F D f f e.D.).F.9 2X2X",
"2Xn (.1X1X,X=X=X&X#XL.6.+X'.K.N.h.0.$...L F D G z._._.).S.7 2X2X",
"2X2X:.1X1X,X=X=X&X#X>.#X'.E.K.N.w.5.$.} L F r. XXX_._.a.5 X 2X2X",
"2X2Xv :X1X,X=X=X&X[.f.|.'.E.H.h.0.3.@.} | T.OXoXXXF.P @ 2X2X2X2X",
"2X2X2Xg.1X,X=X=X&XK.!.[.'.P.B.c.0.3.@.p.$X%XOXoXs.* . 2X2X2X2X2X",
"2X2X2Xb -X,X=X=X&Xk.].[.^.L.b.h.0.y..X;X;X%X`.P @ 2X2X2X2X2X2X2X",
"2X2X2X2XC.,X=X=X&X1.=X[.W.V.b.i.R.>X<X;X;Xl.* . 2X2X2X2X2X2X2X2X",
"2X2X2X2XB *X=X=X&X1.&X[.P.V.Z.*X1X<X<XOXT @ 2X2X2X2X2X2X2X2X2X2X",
"2X2X2X2X2X8.,X=X&X6.&X'.L.+X1X1X1X1XG.6 o 2X2X2X2X2X2X2X2X2X2X2X",
"2X2X2X2X2Xk @X=X&X6.|.[.,X1X1X1X>X' & 2X2X2X2X2X2X2X2X2X2X2X2X2X",
"2X2X2X2X2X2X%.=X&X6.,X1X1X1X1XQ.j o 2X2X2X2X2X2X2X2X2X2X2X2X2X2X",
"2X2X2X2X2X2X1 /.].M.1X1X1X<X&.; 2X2X2X2X2X2X2X2X2X2X2X2X2X2X2X2X",
"2X2X2X2X2X2X2Xx (.J.1X1XJ.x + 2X2X2X2X2X2X2X2X2X2X2X2X2X2X2X2X2X",
"2X2X2X2X2X2X2X2XU J.:X;.< 2X2X2X2X2X2X2X2X2X2X2X2X2X2X2X2X2X2X2X",
"2X2X2X2X2X2X2X2X2 X.m O 2X2X2X2X2X2X2X2X2X2X2X2X2X2X2X2X2X2X2X2X",
"2X2X2X2X2X2X2X2X2X, 2X2X2X2X2X2X2X2X2X2X2X2X2X2X2X2X2X2X2X2X2X2X",
"2X2X2X2X2X2X2X2X2X2X2X2X2X2X2X2X2X2X2X2X2X2X2X2X2X2X2X2X2X2X2X2X"
};
