/* XPM */
static char *front[] = {
/* columns rows colors chars-per-pixel */
"26 23 48 1",
"  c black",
". c gray1",
"X c #060606",
"o c #0B0B0B",
"O c #101010",
"+ c #151515",
"@ c #1B1A1A",
"# c #202020",
"$ c #262625",
"% c gray17",
"& c gray19",
"* c #353434",
"= c #383737",
"- c #383837",
"; c #3B3A3A",
": c #19255E",
"> c #486E9F",
", c #3751F5",
"< c #0E90FF",
"1 c #1392FE",
"2 c #1A95FF",
"3 c #1B9AFF",
"4 c #2781FF",
"5 c #209EFF",
"6 c #329BFF",
"7 c #21A1FF",
"8 c #26A3FF",
"9 c #28A5FE",
"0 c #29AAFF",
"q c #2DABFF",
"w c #35AEFE",
"e c #39B5FF",
"r c #39BBFF",
"t c #41B7FF",
"y c #45BEFE",
"u c #4CBCFF",
"i c #51C0FF",
"p c #53C0FF",
"a c #5AC2FF",
"s c #6DCCFF",
"d c #64D0FF",
"f c #78D7FF",
"g c #79EDFF",
"h c #ACA899",
"j c #87D6FF",
"k c #8ED7FF",
"l c #BAE0F9",
"z c gray100",
/* pixels */
"hzzzzzzzzzzzzzzzzzzzzzzzzz",
"hzzzzzzz;;;;;;;;;;;zzzzzzz",
"hzzzzzz-=zzzzzzzz==zzzzzzz",
"hzzzzz*z*zzzzzzz*z*zzzzzzz",
"hzzzz&zz&zzzzzz&zz&zzzzzzz",
"hzzz%zzz%zzzzz%zzz%zzzzzzz",
"hzz:::::::::::zzzz$zzzzzzz",
"hzz,666666664:zzzz#zzzzzzz",
"hzz,gggggggg4:zzzz@zzzzzzz",
"hzz,glllkjsy4:zzzz+zzzzzzz",
"hzz,gllksape4:zzzzOzzzzzzz",
"hzz,glkdutw04:ooooozzzzzzz",
"hzz,gkjaeq974:zzzXXzzzzzzz",
"hzz,gfstq8534:zz >zzzzzzzz",
"hzz,gpaw85214:z >zzzzzzzzz",
"hzz,grt0731<4: >zzzzzzzzzz",
"hzz,,,,,,,,,,:>zzzzzzzzzzz",
"hzzzzzzzzzzzzzzzzzzzzzzzzz",
"hzzzzzzzzzzzzzzzzzzzzzzzzz",
"hzzzzzzzzzzzzzzzzzzzzzzzzz",
"hzzzzzzzzzzzzzzzzzzzzzzzzz",
"hzzzzzzzzzzzzzzzzzzzzzzzzz",
"hzzzzzzzzzzzzzzzzzzzzzzzzz"
};
