/* XPM */
static char *iso[] = {
/* columns rows colors chars-per-pixel */
"23 23 70 1",
"  c #2B27E7",
". c #2837EA",
"X c #1858EC",
"o c #2442EB",
"O c #204AEF",
"+ c #2A4DED",
"@ c #3444E9",
"# c #2957EB",
"$ c #2855EC",
"% c #3053ED",
"& c #2F42F4",
"* c #245BF0",
"= c #087CF4",
"- c #1B75F6",
"; c #167DF5",
": c #2963EF",
"> c #3961EC",
", c #396FED",
"< c #2160F1",
"1 c #2466F1",
"2 c #2F6DF1",
"3 c #2676F4",
"4 c #2A75F1",
"5 c #227CF3",
"6 c #675FEF",
"7 c #476AEA",
"8 c #0F86F3",
"9 c #138BF6",
"0 c #1984F8",
"q c #138BFD",
"w c #1396F6",
"e c #1299F7",
"r c #1793FA",
"t c #139DF8",
"y c #1899FC",
"u c #2E8BEF",
"i c #248DF6",
"p c #239EF7",
"a c #2C99F5",
"s c #0DAEFF",
"d c #1DA0F7",
"f c #1BA2FE",
"g c #16AAF9",
"h c #18AEFA",
"j c #14B4FF",
"k c #19B7FD",
"l c #17BCFF",
"z c #1BBAFC",
"x c #22A1F7",
"c c #2DA6F7",
"v c #29B8F9",
"b c #15C0FF",
"n c #1BC3FE",
"m c #1DCAFF",
"M c #2EC4FC",
"N c #20CDFE",
"B c #31C8FA",
"V c #20D4FF",
"C c #23D6FF",
"Z c #2DD6FD",
"A c #24D9FF",
"S c #2EDDFE",
"D c #26E2FF",
"F c #2FE3FE",
"G c #29ECFF",
"H c #30E8FE",
"J c #2DF5FF",
"K c #32FFFF",
"L c #34FFFF",
"P c gray100",
/* pixels */
"PPPPPPPPPPPPPPPPPPPPPPP",
"PPPPPPPPPPPPPPPPPPPPPPP",
"PPPPPPPPPPPPPPPPPPPPPPP",
"PPPPPPPPPP>>>PPPPPPPPPP",
"PPPPPPPP72cFp:7PPPPPPPP",
"PPPPPP,2aHLJDz->7PPPPPP",
"PPPPP.%vLKKGAmbq%.PPPPP",
"PPPPP+M4BKKDVmr*5oPPPPP",
"PPPPP+KZ4uSGNy1dgoPPPPP",
"PPPPP+JGDi1p45zgwoPPPPP",
"PPPPP+GDVVf#xnge8oPPPPP",
"PPPPP+GDCmm1Nzgw8oPPPPP",
"PPPPP+GDCmn1mzgw8oPPPPP",
"PPPPP+DANnl<nht9=.PPPPP",
"PPPPP&3Nmlj<zge8XXPPPPP",
"PPPPPP 5jlj<kg9<#PPPPPP",
"PPPPPPP2,0s<j;*:PPPPPPP",
"PPPPPPPPP7-O37PPPPPPPPP",
"PPPPPPPPPP,@6PPPPPPPPPP",
"PPPPPPPPPPPPPPPPPPPPPPP",
"PPPPPPPPPPPPPPPPPPPPPPP",
"PPPPPPPPPPPPPPPPPPPPPPP",
"PPPPPPPPPPPPPPPPPPPPPPP"
};
