/* XPM */
static char *lhs[] = {
/* columns rows colors chars-per-pixel */
"26 23 37 1",
"  c black",
". c gray1",
"X c #060606",
"o c #0B0B0B",
"O c #100F10",
"+ c #101010",
"@ c #151515",
"# c #1B1A1A",
"$ c #202020",
"% c #262625",
"& c gray15",
"* c gray17",
"= c gray19",
"- c #353434",
"; c #383737",
": c #393738",
"> c #3B3A3A",
", c #486E9F",
"< c #2B27E7",
"1 c #2855EC",
"2 c #1D92FF",
"3 c #1E95FF",
"4 c #2A9EFF",
"5 c #2DA0FF",
"6 c #38AAFF",
"7 c #3BADFF",
"8 c #45B5FF",
"9 c #51C0FF",
"0 c #53C3FF",
"q c #5FCDFF",
"w c #69D7FF",
"e c #6AD9FF",
"r c #6DDBFF",
"t c #74E1FF",
"y c #79E5FF",
"u c #82ECFF",
"i c gray100",
/* pixels */
"iiiiiiiiiiiiiiiiiiiiiiiiii",
"iiiiiiiiiiiiiiiiiiiiiiiiii",
"iiiiiiiiiiiiiiiiiiiiiiiiii",
"iiiiiiii1>>>>>>>>>>iiiiiii",
"iiiiiii11iiiiiiii;;iiiiiii",
"iiiiii1u1iiiiiii-i-iiiiiii",
"iiiii1ut1iiiiii=ii=iiiiiii",
"iiii1utw1iiiii*iii*iiiiiii",
"iii&%%%*&&&&&&iiii&iiiiiii",
"iii1yrq81iiii$iiii$iiiiiii",
"iii1rq081iiii#iiii#iiiiiii",
"iii1q0861iiii@iiii@iiiiiii",
"iii108641iiiiOiiiioiiiiiii",
"iii18642<ooooooooooiiiiiii",
"iii1753<iiiiiXiiiX.iiiiiii",
"iii153<iiiiii.ii.,iiiiiiii",
"iii12<iiiiiii.i.,iiiiiiiii",
"iii1<iiiiiiii..,iiiiiiiiii",
"iii...........,iiiiiiiiiii",
"iiiiiiiiiiiiiiiiiiiiiiiiii",
"iiiiiiiiiiiiiiiiiiiiiiiiii",
"iiiiiiiiiiiiiiiiiiiiiiiiii",
"iiiiiiiiiiiiiiiiiiiiiiiiii"
};
