/* XPM */
static char *load_tools[] = {
/* columns rows colors chars-per-pixel */
"32 32 186 2",
"   c #070707",
".  c gray4",
"X  c #181818",
"o  c #202020",
"O  c #282828",
"+  c #2C2C2C",
"@  c #313131",
"#  c #323232",
"$  c #3C3C3C",
"%  c gray24",
"&  c #3F3F3F",
"*  c #4B4B4B",
"=  c #505050",
"-  c #565656",
";  c gray34",
":  c gray38",
">  c #626262",
",  c gray39",
"<  c #6D6D6D",
"1  c #717171",
"2  c gray46",
"3  c #777777",
"4  c #7C7C7C",
"5  c #7E7E7E",
"6  c #7F7F7F",
"7  c #8C6B03",
"8  c #E19A00",
"9  c #DAA300",
"0  c #D7A210",
"q  c #EFA300",
"w  c #E5A900",
"e  c #F2A000",
"r  c #EBB000",
"t  c #E8B800",
"y  c #F0B100",
"u  c #F4B100",
"i  c #F5B700",
"p  c #F6BD00",
"a  c #FEBD00",
"s  c #FCBF00",
"d  c #D2AA24",
"f  c #FFA724",
"g  c #FCA236",
"h  c #EDC900",
"j  c #EDCD00",
"k  c #FDC700",
"l  c #F7CA00",
"z  c #FBCA00",
"x  c #FFC900",
"c  c #FFCA00",
"v  c #F2D102",
"b  c #F1D706",
"n  c #FAD100",
"m  c #FAD300",
"M  c #FDD100",
"N  c #FFD000",
"B  c #F8D600",
"V  c #FFD400",
"C  c #FFD600",
"Z  c gold",
"A  c #FEDA00",
"S  c #FFDD00",
"D  c #FEDE00",
"F  c #FFDE00",
"G  c #FBC619",
"H  c #F9DB15",
"J  c #FADD19",
"K  c #FDD81C",
"L  c #FDE000",
"P  c #FFE400",
"I  c #FFE500",
"U  c #FFE700",
"Y  c #FFE800",
"T  c #FFEB00",
"R  c #FFEC00",
"E  c #FFEF00",
"W  c #FFF000",
"Q  c #FFF100",
"!  c #FFF200",
"~  c #FFF400",
"^  c #FFF105",
"/  c #FFE812",
"(  c #FFF811",
")  c #FFF71C",
"_  c #FFF918",
"`  c #FCC635",
"'  c #FCDD39",
"]  c #FFF329",
"[  c #FFF92E",
"{  c #FFF63F",
"}  c #FCCA4F",
"|  c #FCC651",
" . c #FDD85C",
".. c #FFEF46",
"X. c #FFF442",
"o. c #FEF445",
"O. c #FDF44D",
"+. c #FDEB56",
"@. c #FDF850",
"#. c #FEC76C",
"$. c #FFE76E",
"%. c #FFFD69",
"&. c #FFF96F",
"*. c #FEF275",
"=. c gray51",
"-. c gray52",
";. c #868686",
":. c #8B8B8B",
">. c gray55",
",. c #8E8E8E",
"<. c #939393",
"1. c #959595",
"2. c #989898",
"3. c gray62",
"4. c gray63",
"5. c gray66",
"6. c #AFAFAF",
"7. c #B1B1B1",
"8. c #B9B9B9",
"9. c gray",
"0. c #FFF980",
"q. c #FFFD87",
"w. c #FFFE87",
"e. c #FFFA88",
"r. c #FFFE8A",
"t. c #FFFC8D",
"y. c #FFFC94",
"u. c #FFFB9E",
"i. c #FFFC9D",
"p. c #FFFE9C",
"a. c #FFFC9F",
"s. c #FFFD9F",
"d. c #FFFBA5",
"f. c #FFF9A6",
"g. c #FFF9A7",
"h. c #FFFEA5",
"j. c #FFFAA8",
"k. c #FFFCA9",
"l. c #FFFDA9",
"z. c #FFF8AE",
"x. c #FFF8AF",
"c. c #FFFDAF",
"v. c #FFF7B7",
"b. c #FFF8B0",
"n. c #FFFAB1",
"m. c #FFFCB1",
"M. c #FFF7B8",
"N. c #FFF8B9",
"B. c #FFF8BA",
"V. c #FFFABA",
"C. c #FFFDB9",
"Z. c #FFFDBB",
"A. c #C1C1C1",
"S. c #C6C6C6",
"D. c gray79",
"F. c #CBCBCB",
"G. c #FFF6C0",
"H. c #FFF6C1",
"J. c #FFF8C2",
"K. c #FFFBC3",
"L. c #FFFDC4",
"P. c #FFF6CA",
"I. c #FFF7CA",
"U. c #FFF9CB",
"Y. c #FFFCCC",
"T. c #FFFECD",
"R. c #FFF6D2",
"E. c #FFF7D3",
"W. c #FFF8D4",
"Q. c #FFFDD5",
"!. c #FFFED6",
"~. c #FFF7DB",
"^. c cornsilk",
"/. c #FFFDDF",
"(. c gray89",
"). c gray92",
"_. c #FFF7E1",
"`. c #FFF8E4",
"'. c #FFFAED",
"]. c #FFF8EE",
"[. c gray94",
"{. c #F6F6F6",
"}. c gray98",
"|. c gray99",
" X c #FEFEFE",
".X c None",
/* pixels */
".X.X.X.X.X.X.X.X.X.X.X.X.X.X.X.X.X.X.X.X.X.X.X.X.X.X.X.X.X.X.X.X",
".X.X.X.X.X.X.X.X.Xf g .X.X.X.X.X.X.X.X.X.X.X.X.X.X.X.X.X.X.X.X.X",
".X.X.X.X.X.X.X.X.X#.].| .X.X.X.X.X.X.Xn i .X.X.X.X.X.X.X.X.X.X.X",
".X.X.X.X.X.X.X.X.X} '._. ..X.X.XH @.0./ .X.X.X.X.X.X.X.X.X.X.X.X",
".X.X.X.X.X.X.X.X.X` `.~.R.$.' *.j.h.e.v .X.X.X.X.X.X.X.X.X.X.X.X",
".X.X.X.X.X.X.X.X.XG ^.E.P.G.v.z.d.p.{ .X.X.X.X.X.X.X.X.X.X.X.X.X",
".X.X.X.X.X.X.X.X.XK W.I.H.M.x.f.i.q.b .X.X.X.X.X.X.X.X.X.X.X.X.X",
".X.X.X.X.X.X.X.X+.B.U.J.N.b.g.u.r.) .X.X.X.X.X.X.X.X.X.X.X.X.X.X",
".X.X.X.X.X.XO.C.Q.Y.K.V.n.j.a.w._ Q h .X.X.X.X.X.X.X.X.X.X.X.X.X",
".X.X.X.XM ../.!.T.L.Z.m.k.s.%.( ! T P t .X.X.X.X.X.X.X.X.X.X.X.X",
".X.X.X.Xs l J o.&.y.c.l.t.[ ~ W T P F C w .X.X.X.X.X.X.X.X.X.X.X",
".X.X.X.X.X.X.X.X.Xj ] X.^ E R L D S Z N x 8 .X.X.X.X.X.X.X.X.X.X",
".X.X.X.X.X.X.X.X.X.XB Y U I m d 7 9 r y u e .X.X.X.X.X.X.X.X.X.X",
".X.X.X.X.X.X.X.X.X.Xz F S A 0  X* X .X.X.X.X.X.X.X.X.X.X.X.X.X.X",
".X.X.X.X.X.X.X.X.X.X.XV V p .X8.6.@ .X.X.X.X.X.X.X.X.X.X.X.X.X.X",
".X.X.X.X.X.X.X.X.X.X.Xc k .X.X.X|.: o .X.X.X.X.X.X.X.X.X.X.X.X.X",
".X.X.X.X.X.X.X.X.X.X.Xa q .X.X.X7.A.& .X.X.X.X.X.X.X.X.X.X.X.X.X",
".X.X.X.X.X.X.X.X.X.X.X.X.X.X.X.X.X}.3 + .X.X.X.X.X.X.X.X.X.X.X.X",
".X.X.X.X.X.X.X.X.X.X.X.X.X.X.X.X.X5.F.; .X.X.X.X.X.X.X.X.X.X.X.X",
".X.X.X.X.X.X.X.X.X.X.X.X.X.X.X.X.X.X{.-.% .X.X.X.X.X.X.X.X.X.X.X",
".X.X.X.X.X.X.X.X.X.X.X.X.X.X.X.X.X.X4.D.< .X.X.X.X.X.X.X.X.X.X.X",
".X.X.X.X.X.X.X.X.X.X.X.X.X.X.X.X.X.X.X[.>.= .X.X.X.X.X.X.X.X.X.X",
".X.X.X.X.X.X.X.X.X.X.X.X.X.X.X.X.X.X.X2.S.=..X.X.X.X.X.X.X.X.X.X",
".X.X.X.X.X.X.X.X.X.X.X.X.X.X.X.X.X.X.X.X).<.> .X.X.X.X.X.X.X.X.X",
".X.X.X.X.X.X.X.X.X.X.X.X.X.X.X.X.X.X.X.X,.9.1..X.X.X.X.X.X.X.X.X",
".X.X.X.X.X.X.X.X.X.X.X.X.X.X.X.X.X.X.X.X.X(.:.1 .X.X.X.X.X.X.X.X",
".X.X.X.X.X.X.X.X.X.X.X.X.X.X.X.X.X.X.X.X.X-.<.3.# .X.X.X.X.X.X.X",
".X.X.X.X.X.X.X.X.X.X.X.X.X.X.X.X.X.X.X.X.X.X2 ;.4 .X.X.X.X.X.X.X",
".X.X.X.X.X.X.X.X.X.X.X.X.X.X.X.X.X.X.X.X.X.X. , 3.$ .X.X.X.X.X.X",
".X.X.X.X.X.X.X.X.X.X.X.X.X.X.X.X.X.X.X.X.X.X.XO 5 6 .X.X.X.X.X.X",
".X.X.X.X.X.X.X.X.X.X.X.X.X.X.X.X.X.X.X.X.X.X.X  - =..X.X.X.X.X.X",
".X.X.X.X.X.X.X.X.X.X.X.X.X.X.X.X.X.X.X.X.X.X.X.X.X.X.X.X.X.X.X.X"
};
