/* XPM */
static char *new[] = {
/* columns rows colors chars-per-pixel */
"32 32 113 2",
"   c black",
".  c #131313",
"X  c gray8",
"o  c #252627",
"O  c #363839",
"+  c #4B4B4B",
"@  c #787C7E",
"#  c #8E8E8E",
"$  c #969A9D",
"%  c #9B9DA1",
"&  c gray65",
"*  c #A5A6AB",
"=  c #A8A9A9",
"-  c #ACACAC",
";  c #ACADAD",
":  c #AEAEAF",
">  c #ADAFB3",
",  c #BABBBC",
"<  c #BDBEBF",
"1  c #C2C3C6",
"2  c #C5C5C5",
"3  c gray78",
"4  c #C3C5C8",
"5  c #C7C8CA",
"6  c #CACACB",
"7  c gray81",
"8  c #C3CCD7",
"9  c #C5CED7",
"0  c #C6CED7",
"q  c #C7CFD7",
"w  c #D3D3D4",
"e  c #D7D9DF",
"r  c #C9DEFF",
"t  c #CCDEFF",
"y  c #DBE0E4",
"u  c #CFE0FF",
"i  c #D0E1FF",
"p  c #D1E1FF",
"a  c #D2E2FF",
"s  c #D3E3FF",
"d  c #D5E4FF",
"f  c #D6E5FF",
"g  c #D7E6FF",
"h  c #D8E6FF",
"j  c #D9E7FF",
"k  c #DAE7FF",
"l  c #DBE8FF",
"z  c #DBE9FF",
"x  c #DCE9FF",
"c  c #DDE9FF",
"v  c #DEEAFF",
"b  c #DFEBFF",
"n  c #DFECFF",
"m  c #E0E2E8",
"M  c #E2E6EC",
"N  c #E4E6EC",
"B  c #E9E9E9",
"V  c #EDEFF3",
"C  c #EEEFF3",
"Z  c #E1EBFF",
"A  c #E0ECFF",
"S  c #E1EDFF",
"D  c #E2ECFF",
"F  c #E2EEFF",
"G  c #E3EFFF",
"H  c #E4EDFF",
"J  c #E5EEFF",
"K  c #E4EFFF",
"L  c #E7EFFF",
"P  c #E5F0FF",
"I  c #E7F1FF",
"U  c #EDF1F8",
"Y  c #E8F0FF",
"T  c #EAF1FF",
"R  c #E9F2FF",
"E  c #EBF2FF",
"W  c #EBF3FF",
"Q  c #ECF3FF",
"!  c #EDF3FF",
"~  c #EEF4FF",
"^  c #EEF5FF",
"/  c #F0F0F3",
"(  c #F0F1F5",
")  c #F3F3F4",
"_  c #F4F4F4",
"`  c #F4F4F5",
"'  c #F3F5FB",
"]  c #F7F7F8",
"[  c #F0F5FF",
"{  c #F0F6FF",
"}  c #F1F6FF",
"|  c #F2F7FF",
" . c #F3F7FF",
".. c #F5F7FE",
"X. c #F1F9FF",
"o. c #F3F8FF",
"O. c #F4F8FF",
"+. c #F5F9FF",
"@. c #F6F8FF",
"#. c #F7F9FF",
"$. c #F6FAFF",
"%. c #F7FAFF",
"&. c #FBFBFB",
"*. c #F9FAFF",
"=. c #F8FBFF",
"-. c #FAFBFF",
";. c #FBFCFF",
":. c gray99",
">. c #FCFCFF",
",. c #FDFDFF",
"<. c #FEFEFF",
"1. c gray100",
"2. c None",
/* pixels */
"2.2.2.2.2.2.2.2.2.2.2.2.2.2.2.2.2.2.2.2.2.2.2.2.2.2.2.2.2.2.2.2.",
"2.2.2.2.2.2.2.2.2.2.2.2.2.2.2.2.2.2.2.2.2.2.2.2.2.2.2.2.2.2.2.2.",
"2.2.2.2.2.2.2.2.2.2.2.2.2.2.2.2.2.      2.2.2.2.2.2.2.2.2.2.2.2.",
"2.2.2.2.2.2.2.2.2.+ + + # # # # - 3 7 2 X 2.2.2.2.2.2.2.2.2.2.2.",
"2.2.2.2.2.2.2.2.  1.<.<.<.<.<.1.<.] B :.3   2.2.2.2.2.2.2.2.2.2.",
"2.2.2.2.2.2.2.2.  <.<.<.<.<.<.<.<.) w 1.&.&   2.2.2.2.2.2.2.2.2.",
"2.2.2.2.2.2.2.2.  ,.>.>.>.>.>.>.>./ 6 1.1._ =   2.2.2.2.2.2.2.2.",
"2.2.2.2.2.2.2.2.  >.-.-.-.-.-.-.-.C 5 1.1.1.`   2.2.2.2.2.2.2.2.",
"2.2.2.2.2.2.2.2.  ;.-.-.*.*.-.*.*.( 1 , ; : < . 2.2.2.2.2.2.2.2.",
"2.2.2.2.2.2.2.2.  ;.#.@.#.#.#.#.@.' e > % * 4   2.2.2.2.2.2.2.2.",
"2.2.2.2.2.2.2.2.  =.@.@.@.@.@.@.#...U M m N V   2.2.2.2.2.2.2.2.",
"2.2.2.2.2.2.2.2.  %.} [ O.} [ O.} [  .}  .@.$.  2.2.2.2.2.2.2.2.",
"2.2.2.2.2.2.2.2.  +. .~  .[  .} [ ~ ~  .~ } O.  2.2.2.2.2.2.2.2.",
"2.2.2.2.2.2.2.2.  o.} ! ! ~ ! ~ ~ ! [ } ! ~ $.  2.2.2.2.2.2.2.2.",
"2.2.2.2.2.2.2.2.  o.E ~ E T ! T ~ ~ T Y T Y |   2.2.2.2.2.2.2.2.",
"2.2.2.2.2.2.2.2.  { L E T ! E Y T Y ! L T Y |   2.2.2.2.2.2.2.2.",
"2.2.2.2.2.2.2.2.  ^ H J L Y E Y J J Y J J D {   2.2.2.2.2.2.2.2.",
"2.2.2.2.2.2.2.2.  { D L L Z D J D x H D J T ^   2.2.2.2.2.2.2.2.",
"2.2.2.2.2.2.2.2.  ^ Z J Z l L H b J J b D D W   2.2.2.2.2.2.2.2.",
"2.2.2.2.2.2.2.2.  R Z b v l Z J Z Z D H J j Q   2.2.2.2.2.2.2.2.",
"2.2.2.2.2.2.2.2.  P b Z v h x D l b v v b j I   2.2.2.2.2.2.2.2.",
"2.2.2.2.2.2.2.2.  Q h l f x h h h x h v x l K   2.2.2.2.2.2.2.2.",
"2.2.2.2.2.2.2.2.  W d f v h h d x x j f v b I   2.2.2.2.2.2.2.2.",
"2.2.2.2.2.2.2.2.  P j j h h s d d j f Z j i P   2.2.2.2.2.2.2.2.",
"2.2.2.2.2.2.2.2.  K u a f d s s h u c S z I y   2.2.2.2.2.2.2.2.",
"2.2.2.2.2.2.2.2.  n h s t h f p v z K q $ O   2.2.2.2.2.2.2.2.2.",
"2.2.2.2.2.2.2.2.  G d h k r z G 9 @ o   2.2.2.2.2.2.2.2.2.2.2.2.",
"2.2.2.2.2.2.2.2.  K g A F 0 @ o   2.2.2.2.2.2.2.2.2.2.2.2.2.2.2.",
"2.2.2.2.2.2.2.2.  X.8 @ o   2.2.2.2.2.2.2.2.2.2.2.2.2.2.2.2.2.2.",
"2.2.2.2.2.2.2.2.2.    2.2.2.2.2.2.2.2.2.2.2.2.2.2.2.2.2.2.2.2.2.",
"2.2.2.2.2.2.2.2.2.2.2.2.2.2.2.2.2.2.2.2.2.2.2.2.2.2.2.2.2.2.2.2.",
"2.2.2.2.2.2.2.2.2.2.2.2.2.2.2.2.2.2.2.2.2.2.2.2.2.2.2.2.2.2.2.2."
};
