/* XPM */
static char *player_play[] = {
/* columns rows colors chars-per-pixel */
"32 32 120 2",
"   c #3262BB",
".  c #3262BC",
"X  c #3263BE",
"o  c #3265C3",
"O  c #3265C4",
"+  c #3265C6",
"@  c #3266C7",
"#  c #3266C8",
"$  c #3267C9",
"%  c #3268CB",
"&  c #3268CC",
"*  c #3269CE",
"=  c #3B6ECC",
"-  c #396DCE",
";  c #3269D0",
":  c #3269D1",
">  c #326AD3",
",  c #326BD4",
"<  c #326CD6",
"1  c #396FD1",
"2  c #326CD8",
"3  c #326DDB",
"4  c #326DDC",
"5  c #3C70D0",
"6  c #3F72D2",
"7  c #3271E4",
"8  c #3272E6",
"9  c #3B77E6",
"0  c #3272E8",
"q  c #3272E9",
"w  c #3273EB",
"e  c #3277F6",
"r  c #3278F9",
"t  c #327AFE",
"y  c #387EFF",
"u  c #4F7DD0",
"i  c #3B80FF",
"p  c #3D81FD",
"a  c #3C81FF",
"s  c #5785D8",
"d  c #5987DC",
"f  c #7E9FDD",
"g  c #568AE9",
"h  c #5B8FEE",
"j  c #5C8EEC",
"k  c #5E91EE",
"l  c #4984F0",
"z  c #4D87F3",
"x  c #4986F5",
"c  c #4A86F4",
"v  c #4F89F2",
"b  c #4D88F6",
"n  c #4786FA",
"m  c #4083FF",
"M  c #4284FD",
"N  c #4184FF",
"B  c #4486FF",
"V  c #4987FA",
"C  c #4D8AFA",
"Z  c #558CF1",
"A  c #5E92F1",
"S  c #6693E6",
"D  c #6D97E4",
"F  c #6293ED",
"G  c #6996E8",
"H  c #6D99EB",
"J  c #729AE2",
"K  c #729BE4",
"L  c #759DE6",
"P  c #7A9FE4",
"I  c #7EA0E0",
"U  c #7EA1E0",
"Y  c #7AA0E5",
"T  c #829FD6",
"R  c #83A3DC",
"E  c #82A3DF",
"W  c #80A3E1",
"Q  c #83A6E6",
"!  c #87A8E4",
"~  c #8AA8E0",
"^  c #8BAAE2",
"/  c #8EABE2",
"(  c #8FACE2",
")  c #8AAAE4",
"_  c #8EACE4",
"`  c #8AABE8",
"'  c #90ADE3",
"]  c #92AFE6",
"[  c #91AFE8",
"{  c #94B1E5",
"}  c #9BB4E4",
"|  c #9BB6E6",
" . c #97B4EA",
".. c #9EB8E8",
"X. c #9FB8E8",
"o. c #A3BBE6",
"O. c #A8BFEB",
"+. c #AFC4EB",
"@. c #AEC4EC",
"#. c #B0C5EB",
"$. c #B3C8ED",
"%. c #B4C8EC",
"&. c #B7CBED",
"*. c #BDCFF0",
"=. c #C4D4F1",
"-. c #C8D6F0",
";. c #C8D7F2",
":. c #CBD8F2",
">. c #D2DEF5",
",. c #D4DFF5",
"<. c #D4E0F4",
"1. c #DBE4F5",
"2. c #DCE5F6",
"3. c #DDE6F6",
"4. c #E6EDF9",
"5. c #EDF2FB",
"6. c #EEF2FA",
"7. c #F6F8FC",
"8. c gray100",
"9. c None",
/* pixels */
"9.9.9.9.9.9.9.9.9.9.9.9.9.9.9.9.9.9.9.9.9.9.9.9.9.9.9.9.9.9.9.9.",
"9.9.9.9.9.9.9.9.9.9.9.9.9.* * & & & % 9.9.9.9.9.9.9.9.9.9.9.9.9.",
"9.9.9.9.9.9.9.9.9.9.: : ; * , 4 4 , & & & & 9.9.9.9.9.9.9.9.9.9.",
"9.9.9.9.9.9.9.9.> : , 7 e y Z ~ ~ I i r 7 : & % 9.9.9.9.9.9.9.9.",
"9.9.9.9.9.9.9.: : q y } -.6.7.7.7.7.7.1.o.S w & & + 9.9.9.9.9.9.",
"9.9.9.9.9.9.: 2 t / 3.6.6.6.6.6.6.6.5.5.5.5.#.l 2 & @ 9.9.9.9.9.",
"9.9.9.9.9.: 3 v %.4.4.4.4.4.4.4.4.4.4.4.4.4.4.<.J 2 & o 9.9.9.9.",
"9.9.9.9.: < z =.2.2.2.2.2.2.2.2.2.2.2.2.2.2.2.2.,.D 2 & 9.9.9.9.",
"9.9.9.; * t +.>.>.>.>.>.>.] >.>.>.>.>.>.>.>.>.>.>.:.g & $ 9.9.9.",
"9.9.9.* 0 ( ;.;.;.;.;.;.;.8.] ;.;.;.;.;.;.;.;.;.;.;.+.w & 9.9.9.",
"9.9.& : x &.*.*.*.*.*.*.*.8.8.] *.*.*.*.*.*.*.*.*.*.*.R : $ 9.9.",
"9.9.& 7 ^ $.$.$.$.$.$.$.$.8.8.8.] $.$.$.$.$.$.$.$.@.| E 7 & 9.9.",
"9.9.& e X.O.O.O.O.O.O.O.O.8.8.8.8.] O.O.O.O.O.' K i i i e & X 9.",
"9.& & c ..................8.8.8.8.8.] ........U i i i i y & O 9.",
"9.& , h ] ] ] ] ] ] ] ] ] 8.8.8.8.8.8.] ] ) F F a a i i i : $ 9.",
"9.& 4 G ! ! ! ] ] ] ] ] ] 8.8.8.8.8.8.8.F a a a a i a i i 4 # 9.",
"9.& 4 k P P P ] ] ] ] ) F 8.8.8.8.8.8.8.8.a a a a a a i i 4 # 9.",
"9.& , b F F F F F F a a a 8.8.8.8.8.8.8.a a a a a a a a a : # 9.",
"9.% & p V V V V V V V V n 8.8.8.8.8.8.a a a a a a a a m i & o 9.",
"9.9.& r M M M M M M N N N 8.8.8.8.8.a a a a a a a N N N r & . 9.",
"9.9.& 8 B B B B B B B B B 8.8.8.8.a a a a a a a a B B B 8 & 9.9.",
"9.9.& : V C C C C C C C a 8.8.8.a a a a a C C C C C C V : # 9.9.",
"9.9.9.& 9 A A A A A A A A 8.8.A A A A A A A A A A A A 9 & . 9.9.",
"9.9.9.% & j H H H H H H H 8.H H H H H H H H H H H H j & # 9.9.9.",
"9.9.9.9.& 1 L Y Y Y Y Y Y Y Y Y Y Y Y Y Y Y Y Y Y L 1 & 9.9.9.9.",
"9.9.9.9.9.& 6 W Q Q Q Q Q Q Q Q Q Q Q Q Q Q Q Q W 6 &   9.9.9.9.",
"9.9.9.9.9.9.& 5 f ` ` ` ` ` ` ` ` ` ` ` ` ` ` f 5 &   9.9.9.9.9.",
"9.9.9.9.9.9.9.& & d _ [ [ [ [ [ [ [ [ [ [ _ d & &   9.9.9.9.9.9.",
"9.9.9.9.9.9.9.9.$ & - s T {  . . . .{ T s - & # 9.9.9.9.9.9.9.9.",
"9.9.9.9.9.9.9.9.9.9.$ & & & = u u = & & & # . 9.9.9.9.9.9.9.9.9.",
"9.9.9.9.9.9.9.9.9.9.9.9.X O $ # # # o . 9.9.9.9.9.9.9.9.9.9.9.9.",
"9.9.9.9.9.9.9.9.9.9.9.9.9.9.9.9.9.9.9.9.9.9.9.9.9.9.9.9.9.9.9.9."
};
