/* XPM */
static char *player_pause[] = {
/* columns rows colors chars-per-pixel */
"32 32 119 2",
"   c #3262BB",
".  c #3262BC",
"X  c #3263BE",
"o  c #3265C3",
"O  c #3265C4",
"+  c #3265C6",
"@  c #3266C7",
"#  c #3266C8",
"$  c #3267C9",
"%  c #3268CB",
"&  c #3268CC",
"*  c #3269CE",
"=  c #3B6ECC",
"-  c #396DCE",
";  c #3269D0",
":  c #3269D1",
">  c #326AD3",
",  c #326BD4",
"<  c #326CD6",
"1  c #396FD1",
"2  c #326CD8",
"3  c #326DDB",
"4  c #326DDC",
"5  c #3C70D0",
"6  c #3F72D2",
"7  c #3271E4",
"8  c #3272E6",
"9  c #3B77E6",
"0  c #3272E8",
"q  c #3272E9",
"w  c #3273EB",
"e  c #3277F6",
"r  c #3278F9",
"t  c #327AFE",
"y  c #387EFF",
"u  c #4F7DD0",
"i  c #3B80FF",
"p  c #3D81FD",
"a  c #3C81FF",
"s  c #5785D8",
"d  c #5987DC",
"f  c #7E9FDD",
"g  c #568AE9",
"h  c #5B8FEE",
"j  c #5C8EEC",
"k  c #5E91EE",
"l  c #4984F0",
"z  c #4D87F3",
"x  c #4986F5",
"c  c #4A86F4",
"v  c #4F89F2",
"b  c #4D88F6",
"n  c #4083FF",
"m  c #4284FD",
"M  c #4184FF",
"N  c #4486FF",
"B  c #4987FA",
"V  c #4D8AFA",
"C  c #558CF1",
"Z  c #5E92F1",
"A  c #6693E6",
"S  c #6D97E4",
"D  c #6293ED",
"F  c #6996E8",
"G  c #6D99EB",
"H  c #729AE2",
"J  c #729BE4",
"K  c #759DE6",
"L  c #7A9FE4",
"P  c #7EA0E0",
"I  c #7EA1E0",
"U  c #7AA0E5",
"Y  c #829FD6",
"T  c #83A3DC",
"R  c #82A3DF",
"E  c #80A3E1",
"W  c #83A6E6",
"Q  c #87A8E4",
"!  c #8AA8E0",
"~  c #8BAAE2",
"^  c #8EABE2",
"/  c #8FACE2",
"(  c #8AAAE4",
")  c #8EACE4",
"_  c #8AABE8",
"`  c #90ADE3",
"'  c #92AFE6",
"]  c #91AFE8",
"[  c #94B1E5",
"{  c #9BB4E4",
"}  c #9BB6E6",
"|  c #97B4EA",
" . c #9EB8E8",
".. c #9FB8E8",
"X. c #A3BBE6",
"o. c #A8BFEB",
"O. c #AFC4EB",
"+. c #AEC4EC",
"@. c #B0C5EB",
"#. c #B3C8ED",
"$. c #B4C8EC",
"%. c #B7CBED",
"&. c #BDCFF0",
"*. c #C4D4F1",
"=. c #C8D6F0",
"-. c #C8D7F2",
";. c #CBD8F2",
":. c #D2DEF5",
">. c #D4DFF5",
",. c #D4E0F4",
"<. c #DBE4F5",
"1. c #DCE5F6",
"2. c #DDE6F6",
"3. c #E6EDF9",
"4. c #EDF2FB",
"5. c #EEF2FA",
"6. c #F6F8FC",
"7. c gray100",
"8. c None",
/* pixels */
"8.8.8.8.8.8.8.8.8.8.8.8.8.8.8.8.8.8.8.8.8.8.8.8.8.8.8.8.8.8.8.8.",
"8.8.8.8.8.8.8.8.8.8.8.8.8.* * & & & % 8.8.8.8.8.8.8.8.8.8.8.8.8.",
"8.8.8.8.8.8.8.8.8.8.: : ; * , 4 4 , & & & & 8.8.8.8.8.8.8.8.8.8.",
"8.8.8.8.8.8.8.8.> : , 7 e y C ! ! P i r 7 : & % 8.8.8.8.8.8.8.8.",
"8.8.8.8.8.8.8.: : q y { =.5.6.6.6.6.6.<.X.A w & & + 8.8.8.8.8.8.",
"8.8.8.8.8.8.: 2 t ^ 2.5.5.5.5.5.5.5.4.4.4.4.@.l 2 & @ 8.8.8.8.8.",
"8.8.8.8.8.: 3 v $.3.3.3.3.3.3.3.3.3.3.3.3.3.3.,.H 2 & o 8.8.8.8.",
"8.8.8.8.: < z *.1.1.1.1.1.1.1.1.1.1.1.1.1.1.1.1.>.S 2 & 8.8.8.8.",
"8.8.8.; * t O.:.:.:.:.:.:.:.:.:.:.:.:.:.:.:.:.:.:.;.g & $ 8.8.8.",
"8.8.8.* 0 / -.-.-.-.-.' ' ' ' -.-.-.' ' ' ' -.-.-.-.O.w & 8.8.8.",
"8.8.& : x %.&.&.&.&.&.7.7.7.7.&.&.&.7.7.7.7.&.&.&.&.&.T : $ 8.8.",
"8.8.& 7 ~ #.#.#.#.#.#.7.7.7.7.#.#.#.7.7.7.7.#.#.#.+.} R 7 & 8.8.",
"8.8.& e ..o.o.o.o.o.o.7.7.7.7.o.o.o.7.7.7.7.o.` J i i i e & X 8.",
"8.& & c  . . . . . . .7.7.7.7. . . .7.7.7.7. .I i i i i y & O 8.",
"8.& , h ' ' ' ' ' ' ' 7.7.7.7.' ' ' 7.7.7.7.D D a a i i i : $ 8.",
"8.& 4 F Q Q Q ' ' ' ' 7.7.7.7.' ( ( 7.7.7.7.a a a i a i i 4 # 8.",
"8.& 4 k L L L ' ' ' ' 7.7.7.7.D D a 7.7.7.7.a a a a a i i 4 # 8.",
"8.& , b D D D D D D a 7.7.7.7.a a a 7.7.7.7.a a a a a a a : # 8.",
"8.% & p B B B B B B B 7.7.7.7.a a a 7.7.7.7.a a a a a n i & o 8.",
"8.8.& r m m m m m m M 7.7.7.7.a a a 7.7.7.7.a a a M M M r & . 8.",
"8.8.& 8 N N N N N N N 7.7.7.7.a a a 7.7.7.7.a a a N N N 8 & 8.8.",
"8.8.& : B V V V V V V 7.7.7.7.a a a 7.7.7.7.V V V V V B : # 8.8.",
"8.8.8.& 9 Z Z Z Z Z Z Z Z Z Z Z Z Z Z Z Z Z Z Z Z Z Z 9 & . 8.8.",
"8.8.8.% & j G G G G G G G G G G G G G G G G G G G G j & # 8.8.8.",
"8.8.8.8.& 1 K U U U U U U U U U U U U U U U U U U K 1 & 8.8.8.8.",
"8.8.8.8.8.& 6 E W W W W W W W W W W W W W W W W E 6 &   8.8.8.8.",
"8.8.8.8.8.8.& 5 f _ _ _ _ _ _ _ _ _ _ _ _ _ _ f 5 &   8.8.8.8.8.",
"8.8.8.8.8.8.8.& & d ) ] ] ] ] ] ] ] ] ] ] ) d & &   8.8.8.8.8.8.",
"8.8.8.8.8.8.8.8.$ & - s Y [ | | | | [ Y s - & # 8.8.8.8.8.8.8.8.",
"8.8.8.8.8.8.8.8.8.8.$ & & & = u u = & & & # . 8.8.8.8.8.8.8.8.8.",
"8.8.8.8.8.8.8.8.8.8.8.8.X O $ # # # o . 8.8.8.8.8.8.8.8.8.8.8.8.",
"8.8.8.8.8.8.8.8.8.8.8.8.8.8.8.8.8.8.8.8.8.8.8.8.8.8.8.8.8.8.8.8."
};
