/* XPM */
static char *print[] = {
/* columns rows colors chars-per-pixel */
"32 32 248 2",
"   c black",
".  c #020202",
"X  c #040404",
"o  c gray3",
"O  c #0B0B0B",
"+  c #0C0C0C",
"@  c gray6",
"#  c #111111",
"$  c #131313",
"%  c #151515",
"&  c #161616",
"*  c gray9",
"=  c #191919",
"-  c #1B1B1B",
";  c #191927",
":  c #1E1E2D",
">  c gray13",
",  c gray14",
"<  c #272727",
"1  c #2A2A2A",
"2  c #2C2C2C",
"3  c #2D2D2D",
"4  c gray18",
"5  c #2F2F2F",
"6  c #2F2F33",
"7  c #27273D",
"8  c gray19",
"9  c #313131",
"0  c #323232",
"q  c gray20",
"w  c #353535",
"e  c gray24",
"r  c #3E3E3E",
"t  c #373752",
"y  c #373753",
"u  c gray25",
"i  c gray26",
"p  c #444444",
"a  c gray28",
"s  c gray29",
"d  c gray30",
"f  c #4E4E4E",
"g  c #4D4D50",
"h  c #505050",
"j  c #515151",
"k  c #555555",
"l  c gray34",
"z  c gray36",
"x  c #5F5F5F",
"c  c gray38",
"v  c gray39",
"b  c #656565",
"n  c gray40",
"m  c #676767",
"M  c #6C6C6C",
"N  c #6D6D6D",
"B  c gray43",
"V  c #6F6F6F",
"C  c #6D6D7A",
"Z  c gray44",
"A  c #717171",
"S  c gray45",
"D  c #747474",
"F  c gray46",
"G  c #767676",
"H  c #777777",
"J  c gray47",
"K  c #797979",
"L  c gray48",
"P  c #7E7E7E",
"I  c #76AF59",
"U  c #79BF56",
"Y  c #7E9E6E",
"T  c #80A070",
"R  c #565682",
"E  c #5E5E8D",
"W  c #5F5F8E",
"Q  c #5F6288",
"!  c #666680",
"~  c #616190",
"^  c #606091",
"/  c #626292",
"(  c #7A7E9E",
")  c #6F73A2",
"_  c #7576A2",
"`  c #7D80AC",
"'  c #808080",
"]  c #818181",
"[  c gray51",
"{  c #838383",
"}  c #848484",
"|  c #868686",
" . c #888888",
".. c #898989",
"X. c gray54",
"o. c #8B8B8B",
"O. c #8D8D8D",
"+. c #8E8E8E",
"@. c gray56",
"#. c #909090",
"$. c #929292",
"%. c gray58",
"&. c gray59",
"*. c #979797",
"=. c gray60",
"-. c #9A9A9A",
";. c #9B9B9B",
":. c #9D9D9D",
">. c gray62",
",. c #9F9F9F",
"<. c #8384A4",
"1. c #8686AD",
"2. c #8A95BF",
"3. c #8B95BF",
"4. c #9494B4",
"5. c #9595B6",
"6. c #9292B8",
"7. c #9C9CBA",
"8. c #A0A0A0",
"9. c gray63",
"0. c #A2A2A2",
"q. c gray64",
"w. c #A4A4A4",
"e. c #A5A5A5",
"r. c gray65",
"t. c #A7A7A7",
"y. c gray66",
"u. c #A9A9A9",
"i. c #AAAAAA",
"p. c gray67",
"a. c #ACACAC",
"s. c gray68",
"d. c #AEAEAE",
"f. c #AFAFAF",
"g. c #A6A6B0",
"h. c #A0A0BD",
"j. c #AEAEBB",
"k. c gray69",
"l. c #B1B1B1",
"z. c #B2B2B2",
"x. c gray70",
"c. c #B4B4B4",
"v. c gray71",
"b. c #B6B6B6",
"n. c #B7B7B7",
"m. c #B3B3B9",
"M. c gray72",
"N. c #B9B9B9",
"B. c gray73",
"V. c #BBBBBB",
"C. c #BCBCBC",
"Z. c gray74",
"A. c gray",
"S. c gray75",
"D. c #9393C2",
"F. c #92A2CC",
"G. c #A9A9C2",
"H. c #B3B3CC",
"J. c #A8B7D9",
"K. c #BFBFD4",
"L. c #B2BCD9",
"P. c #B8BFD9",
"I. c #9BBAE6",
"U. c #99BCFF",
"Y. c #ADB6E6",
"T. c #A6B3FF",
"R. c #9FC2FF",
"E. c #A2C5FF",
"W. c #A5C8FF",
"Q. c #ACCAFF",
"!. c #A8CCFF",
"~. c #B9C5FF",
"^. c #AAD0FF",
"/. c #ADD6FF",
"(. c #B2D4F9",
"). c #B0D7FF",
"_. c #B9D3FF",
"`. c #B5DAFF",
"'. c #B7DBFF",
"]. c #BEDFFF",
"[. c #C0C0C0",
"{. c #C1C1C1",
"}. c #C3C3C3",
"|. c #C5C5C5",
" X c #C6C6C6",
".X c gray78",
"XX c #C8C8C8",
"oX c #CACACA",
"OX c #CBCBCB",
"+X c gray80",
"@X c #CDCDCD",
"#X c #CECECE",
"$X c gray81",
"%X c #CCCCD6",
"&X c #D0D0D0",
"*X c gray82",
"=X c #D2D2D2",
"-X c LightGray",
";X c gray83",
":X c #D5D5D5",
">X c gray84",
",X c #D7D7D7",
"<X c #D4D4DA",
"1X c #D8D8D8",
"2X c gray85",
"3X c #DADADA",
"4X c gray86",
"5X c gray87",
"6X c #DFDFDF",
"7X c #C6D4F2",
"8X c #CADBF2",
"9X c #CCD6FF",
"0X c #DFE1EC",
"qX c #C8E4FF",
"wX c #CFE7FF",
"eX c #DEE3F1",
"rX c #DFE6F2",
"tX c #DFE6FF",
"yX c #D9ECFF",
"uX c gray88",
"iX c #E1E1E1",
"pX c #E2E2E2",
"aX c gray89",
"sX c gray90",
"dX c #E6E6E6",
"fX c #E7E7E7",
"gX c gray91",
"hX c #EAEAEA",
"jX c gray92",
"kX c gray93",
"lX c #EEEEEE",
"zX c #EFEFEF",
"xX c #E0F0FF",
"cX c #EAF5FF",
"vX c #F1F1F1",
"bX c gray95",
"nX c #F3F3F3",
"mX c #F4F4F4",
"MX c #F6F6F6",
"NX c gray97",
"BX c #F1F8FF",
"VX c #F8F8F8",
"CX c gray98",
"ZX c #FBFBFB",
"AX c #FBFDFF",
"SX c #FEFEFE",
"DX c gray100",
"FX c None",
/* pixels */
"FXFXFXFXFX/ ~ G.5.4.h.K.H.H.H.7.FXFXFXFXFXFXFXFXFXFXFXFXFXFXFXFX",
"FXFXFXFX^ 0XAXAXAXAXAXAXAXAXAXAX<.FXFXFXFXFXFXFXFXFXFXFXFXFXFXFX",
"FXFXFXFXFX_ BXBXBXBXBXBXBXBXBXBXrXy FXFXFXFXFXFXFXFXFXFXFXFXFXFX",
"FXFXFXFXFXR P.cXcXcXcXcXcXcXcXcXcX( FXFXFXFXFXFXFXFXFXFXFXFXFXFX",
"FXFXFXFXFXFX` xXxXxXxXxXxXxXxXxXxXL.: FXFXFXFXFXFXFXFXFXFXFXFXFX",
"FXFXFXFXFXFXE 8XyXyXyXyXyXyXyXyXyX8Xt FXFXFXFXFXFXFXFXFXFXFXFXFX",
"FXFXFXFXFXFXFXJ.wXwXwXwXwXwXwXwXwXwXQ FXFXFXFXFXFXFXFXFXFXFXFXFX",
"FXFXFXFXFXFXFX3.qXqXqXqXqXqXqXqXqXqX2.  FXFXFXFXFXFXFXFXFXFXFXFX",
"FXFXFXFXFXFXFX) ].].].].].].].].].].F.; FXFXFXFXFXFXFXFXFXFXFXFX",
"FXFXFXFXFXFXFX~ (.'.'.'.'.'.'.'.`.).I.7 FXFXFXFXFXFXFXFXFXFXFXFX",
"FXFXFXFXFXFXFXW I./.^.!.W.E.R.U.Q._.7X%XP FXFXFXFXFXFXFXFXFXFXFX",
"FXFXFXFXFXFX| m.Y.T.T.~.9XtXeXhXuX:X-X:X8.i k FXFXFXFXFXFXFXFXFX",
"FXFXFXFXFXFXo.NXVXCX3X.X{.z.N.S. X@X-X-X0.p.l.0.m FXFXFXFXFXFXFX",
"FXFXFXFXFXFXX.hXhXhXb.p.z.N.S.s.,.+.:.9.{.pX5Xb.|.H FXFXFXFXFXFX",
"FXFXFXFXH &.*.i.;.k.f.%.X.&.q.Z.:XlXkXjXhXgXfXdXv.XXD FXFXFXFXFX",
"FXFXFXO.3X>X*X>X6Xk.-.*XmXbXvXzXlXkXjXhXgXfXdX4XA.p.&Xj FXFXFXFX",
"FXFXl 2X5X3X>X*X&XzX-XV.bXvXzXlXkXjXhX6XoXb.l.A.$XuX5X .5 FXFXFX",
"FXFXk dXpX5X3X>X*X$XzX*X|.zXlXgX=XZ.z.V.#XuXaXiX1X@X}...q FXFXFX",
"FXFXj ,XdXpX5X3X>X*X;XvXS.N.x.M.*XaXfXdXiX$X}.b.b.c.9.S 8 FXFXFX",
"FXFXf H M.dXpX5X3X>X*X5XlXpXjXhXgX3X.Xv.s.k.d.*.' v b K 5 FXFXFX",
"FXFXs n.=.B e.3X5X3X>X-XjXiX#XM.y.t.i.w.@.D Z o.a.Y U b 3 FXFXFX",
"FXFXa OXbXsXu.G %.#X3X>Xx.>.0.w.-.{ S D  .t.N.C.S.T I H 2 FXFXFX",
"FXFXp #XMXbXlXiXt.G $.}.s.@.] B S @.t.x.b.N.C.S.}.9.XX..1 FXFXFX",
"FXFXi &XZXMXbXlXhXdXc.F n L o.0.s.k.x.b.N.n.0.#.f q N.J < FXFXFX",
"FXFXr 9.SXZXMXbXlXhXdXpXp.t.i.s.k.x.b.=.} F P +.:.t.O.A 9 FXFXFX",
"FXFXFX8 k }.ZXMXbXlXhXdXb.i.s.k.o.N l x V P +.:.f. XdXCXx FXFXFX",
"FXFXFXFXFX4 N >XMXbXlXhXB.s.k.p.e h x V P +.:.|.hXDX+XM @ FXFXFX",
"FXFXFXFXFXFX* 0 [ hXbXlXZ.k.x.j.1.C V P ;.=XnXbXr.r O   FXFXFXFX",
"FXFXFXFXFXFXFXFX> u &.bX[.q.B g ! D.6.<XDXdXP 4 o   FXFXFXFXFXFX",
"FXFXFXFXFXFXFXFXFXFX, d z w , % + 6 ! g.c = X   FXFXFXFXFXFXFXFX",
"FXFXFXFXFXFXFXFXFXFXFX# - .   FXFXFX$ &     FXFXFXFXFXFXFXFXFXFX",
"FXFXFXFXFXFXFXFXFXFXFXFXFXFXFXFXFXFXFXFXFXFXFXFXFXFXFXFXFXFXFXFX"
};
