/* XPM */
static char *Redo[] = {
/* columns rows colors chars-per-pixel */
"32 32 96 2",
"   c #0044C2",
".  c #0046C6",
"X  c #0047C8",
"o  c #0047CA",
"O  c #0049D0",
"+  c #004AD2",
"@  c #004BD4",
"#  c #004CD8",
"$  c #004DDA",
"%  c #004EDC",
"&  c #004EDE",
"*  c #004FE0",
"=  c #0050E2",
"-  c #0050E4",
";  c #0051E6",
":  c #0052E8",
">  c #0053EA",
",  c #0053EC",
"<  c #0054EE",
"1  c #0055F0",
"2  c #0055F2",
"3  c #0056F4",
"4  c #0057F6",
"5  c #0058F8",
"6  c #0058FA",
"7  c #0059FC",
"8  c #005AFE",
"9  c #015BFF",
"0  c #035CFF",
"q  c #055DFF",
"w  c #075FFF",
"e  c #0D60F7",
"r  c #0563FF",
"t  c #0960FF",
"y  c #0D62FF",
"u  c #0966FF",
"i  c #0B6DFF",
"p  c #0D6EFF",
"a  c #1263F6",
"s  c #1366FF",
"d  c #1769FF",
"f  c #196AFF",
"g  c #1B6BFF",
"h  c #0D7FFF",
"j  c #256BEB",
"k  c #236AED",
"l  c #236BEF",
"z  c #2D7AED",
"x  c #3372E5",
"c  c #3A76E4",
"v  c #216FFF",
"b  c #2371FF",
"n  c #2572FF",
"m  c #2B76FF",
"M  c #2F78FF",
"N  c #337BFF",
"B  c #397FFF",
"V  c #457BDF",
"C  c #1187FF",
"Z  c #1388FF",
"A  c #3F83FF",
"S  c #5282DA",
"D  c #668ED6",
"F  c #618CDB",
"G  c #6B91D5",
"H  c #7F9FD9",
"J  c #4D83E7",
"K  c #4385FF",
"L  c #4989FF",
"P  c #5991F9",
"I  c #5B93F9",
"U  c #5994FF",
"Y  c #7A9EE0",
"T  c #72A2FA",
"R  c #75A6FF",
"E  c #80A2D4",
"W  c #84A4DE",
"Q  c #8AA9D8",
"!  c #93ADDD",
"~  c #84A5E2",
"^  c #9DB5E1",
"/  c #9EBAE0",
"(  c #94B3EC",
")  c #85ADF5",
"_  c #8FB7FF",
"`  c #9FBDF5",
"'  c #B6CAE8",
"]  c #A4C2FA",
"[  c #A9C7FF",
"{  c #B4CBF6",
"}  c #BCD2FA",
"|  c #CCDAF0",
" . c #CCDBF6",
".. c #C5DAFF",
"X. c #DFEAFF",
"o. c None",
/* pixels */
"o.o.o.o.o.o.o.o.o.o.o.o.o.o.o.o.o.o.o.o.o.o.o.o.o.o.o.o.o.o.o.o.",
"o.o.o.o.o.o.o.o.o.o.o.o.o.o.o.o.o.o.o.o.o.o.o.o.o.o.o.o.o.o.o.o.",
"o.o.o.o.o.o.o.o.o.o.o.o.o.o.o.o.o.o.o.o.o.o.o.o.o.o.o.o.o.o.o.o.",
"o.o.o.o.o.o.o.o.o.o.o.o.o.o.o.o.o.o.o.o.o.o.o.o.o.o.o.o.o.o.o.o.",
"o.o.o.o.o.o.o.o.o.o.o.o.o.o.o.o.o.o.o.o.o.o.o.o.o.o.o.o.o.o.o.o.",
"o.o.o.o.o.o.o.o.o.o.o.o.o.o.o.o.o.o.o.o.o.o.o.o.o.o.o.o.o.o.o.o.",
"o.o.o.o.o.o.o.o.o.o.C Z Z Z Z Z Z C h o.o.o.o.o.o.o.o.o.o.o.o.o.",
"o.o.o.o.o.o.o.u i p E / | | | | ' Q z p r o.o.o.o.o.o.o.o.o.o.o.",
"o.o.o.o.o.o.w l !  .X.X.X.X.X.X.X.X.X.^ l q o.o.o.o.o.o.o.o.o.o.",
"o.o.o.o.0 q D } ........................{ V 0 o.o.o.o.o.o.o.o.o.",
"o.o.o.8 8 ~ ` W H S S G H ( [ [ [ [ [ [ [ ] c 7 o.o.o.o.o.o.o.o.",
"o.o.6 e F x 7 7 2 1 , 3 5 7 j Y _ _ _ _ _ _ ) e < o.o.o.o.o.o.o.",
"o.4 5 5 5 > @ o.o.o.o.o.o.o., 5 k T R R R R R J 5 o.o.o.o.o.o.o.",
"o.3 3 < o.o.o.o.o.o.o.o.o.o.o.o.2 a I U U U U P 3 * o.o.o.o.o.o.",
"1 1 = o.o.o.o.o.o.o.o.o.o.o.o.o.o.1 0 L L L L L y : o.o.o.o.o.o.",
", o.o.o.o.o.o.o.o.o.o.o.o.o.o.o.o.- , b K K K K f , o.o.o.o.o.o.",
"o.o.o.o.o.o.o.o.o.o.o.o.o.> > > > > > q A A A A m > > > > > > > ",
"o.o.o.o.o.o.o.o.o.o.o.o.o.= ; g B B B B B B B B B B B B B q ; O ",
"o.o.o.o.o.o.o.o.o.o.o.o.o.o.% = d N N N N N N N N N N N 9 = o o.",
"o.o.o.o.o.o.o.o.o.o.o.o.o.o.o.# & s M M M M M M M M M 7 & X o.o.",
"o.o.o.o.o.o.o.o.o.o.o.o.o.o.o.o.@ $ y m m m m m m m 5 $ . o.o.o.",
"o.o.o.o.o.o.o.o.o.o.o.o.o.o.o.o.o.+ # t n n n n n 4 #   o.o.o.o.",
"o.o.o.o.o.o.o.o.o.o.o.o.o.o.o.o.o.o.+ # q v v v 2 #   o.o.o.o.o.",
"o.o.o.o.o.o.o.o.o.o.o.o.o.o.o.o.o.o.o.+ # 0 g 1 #   o.o.o.o.o.o.",
"o.o.o.o.o.o.o.o.o.o.o.o.o.o.o.o.o.o.o.o.+ # : #   o.o.o.o.o.o.o.",
"o.o.o.o.o.o.o.o.o.o.o.o.o.o.o.o.o.o.o.o.o.+ #   o.o.o.o.o.o.o.o.",
"o.o.o.o.o.o.o.o.o.o.o.o.o.o.o.o.o.o.o.o.o.o.o.o.o.o.o.o.o.o.o.o.",
"o.o.o.o.o.o.o.o.o.o.o.o.o.o.o.o.o.o.o.o.o.o.o.o.o.o.o.o.o.o.o.o.",
"o.o.o.o.o.o.o.o.o.o.o.o.o.o.o.o.o.o.o.o.o.o.o.o.o.o.o.o.o.o.o.o.",
"o.o.o.o.o.o.o.o.o.o.o.o.o.o.o.o.o.o.o.o.o.o.o.o.o.o.o.o.o.o.o.o.",
"o.o.o.o.o.o.o.o.o.o.o.o.o.o.o.o.o.o.o.o.o.o.o.o.o.o.o.o.o.o.o.o.",
"o.o.o.o.o.o.o.o.o.o.o.o.o.o.o.o.o.o.o.o.o.o.o.o.o.o.o.o.o.o.o.o."
};
