/* XPM */
static char *save[] = {
/* columns rows colors chars-per-pixel */
"32 32 254 2",
"   c gray20",
".  c #314F76",
"X  c #475155",
"o  c #445258",
"O  c #455258",
"+  c #555555",
"@  c #565656",
"#  c gray34",
"$  c #515C62",
"%  c #5B696F",
"&  c #4F667A",
"*  c #606060",
"=  c gray38",
"-  c #676767",
";  c DimGray",
":  c #6A6A6A",
">  c gray42",
",  c #6C6C6C",
"<  c gray43",
"1  c #727272",
"2  c gray45",
"3  c #747474",
"4  c gray46",
"5  c #3D608E",
"6  c #587289",
"7  c #4634CE",
"8  c #5245D2",
"9  c #425FD3",
"0  c #435FD3",
"q  c #5179DB",
"w  c #6A8088",
"e  c #7E99A6",
"r  c #799CB8",
"t  c #799DBC",
"y  c #588ED3",
"u  c #598ED4",
"i  c #5B8FD4",
"p  c #5C8FD4",
"a  c #5986DF",
"s  c #5D92D5",
"d  c #5D92D6",
"f  c #6194D6",
"g  c #6095D6",
"h  c #6597D7",
"j  c #6598D7",
"k  c #699BD8",
"l  c #6C9ED9",
"z  c #71A1D9",
"x  c #71A2D9",
"c  c #75A6DA",
"v  c #76A6DB",
"b  c #79A9DB",
"n  c #79A9DC",
"m  c #7FADDD",
"M  c #5C88E0",
"N  c #5C89E0",
"B  c #5F99E4",
"V  c #5F99E5",
"C  c #608BE1",
"Z  c #608CE1",
"A  c #638EE1",
"S  c #648FE2",
"D  c #7E85E1",
"F  c #6792E3",
"G  c #6892E3",
"H  c #6B95E4",
"J  c #6B94E5",
"K  c #629BE5",
"L  c #629CE5",
"P  c #659EE6",
"I  c #6F98E5",
"U  c #7098E5",
"Y  c #68A0E7",
"T  c #68A1E7",
"R  c #69A1E7",
"E  c #6CA3E8",
"W  c #6CA4E8",
"Q  c #6DA4E8",
"!  c #70A7E9",
"~  c #71A7E9",
"^  c #75ABEA",
"/  c #7AAEEB",
"(  c #7AAFEB",
")  c #7FAEEB",
"_  c #7FAFEB",
"`  c #7FB2EC",
"'  c #7FB3EC",
"]  c #7EB3ED",
"[  c #7FB3ED",
"{  c gray55",
"}  c #8E8E8E",
"|  c #909094",
" . c #909498",
".. c #90999E",
"X. c #809BA6",
"o. c #90A0A5",
"O. c #90A8AD",
"+. c #90AFB5",
"@. c #90B7BD",
"#. c #A3A3AF",
"$. c #AFAFAF",
"%. c #A3A7B3",
"&. c #A3A8B3",
"*. c #A3AEB8",
"=. c #A3B5BE",
"-. c #B7B7B7",
";. c #90BDC4",
":. c #8EB5D2",
">. c #82B1DE",
",. c #83B2DE",
"<. c #88B4DF",
"1. c #88B5DF",
"2. c #9CBDD0",
"3. c #A3BEC4",
"4. c #B4BAC8",
"5. c #B3BFCB",
"6. c #B3BFCC",
"7. c #8DB8E0",
"8. c #8DB9E1",
"9. c #83B6EE",
"0. c #83B7EE",
"q. c #84B7EE",
"w. c #89BBEE",
"e. c #88BBEF",
"r. c #89BBEF",
"t. c #91BDE2",
"y. c #91B8ED",
"u. c #8EBFF0",
"i. c #90C3CA",
"p. c #90C7CE",
"a. c #9AC2DE",
"s. c #9AC2DF",
"d. c #9FC6DF",
"f. c #A3C6CB",
"g. c #A3C6CC",
"h. c #A3CED2",
"j. c #B3C5D0",
"k. c #B4C5D0",
"l. c #B4CBD5",
"z. c #A3D6D8",
"x. c #A3DCDD",
"c. c #B3D2DA",
"v. c #B3D3DB",
"b. c #B4DBDF",
"n. c #96C1E3",
"m. c #96C1E4",
"M. c #9FC6E0",
"N. c #9BC4E4",
"B. c #9BC4E5",
"V. c #9FC8E6",
"C. c #8EC0F0",
"Z. c #93C3F1",
"A. c #93C3F2",
"S. c #93C4F1",
"D. c #93C4F2",
"F. c #99C7F3",
"G. c #98C8F2",
"H. c #99C8F2",
"J. c #98C8F3",
"K. c #99C8F3",
"L. c #9EC8F2",
"P. c #9FC8F2",
"I. c #9DCCF4",
"U. c #9ECCF4",
"Y. c #A3C8E1",
"T. c #A3C9E1",
"R. c #A6CCE1",
"E. c #A7CCE1",
"W. c #A0C8E6",
"Q. c #A3CCE6",
"!. c #A4CCE6",
"~. c #A8CEE0",
"^. c #ABCFE1",
"/. c #A8CFE7",
"(. c #A8CFE8",
"). c #ABD2E9",
"_. c #ACD2E8",
"`. c #AFD5E9",
"'. c #B4DAE1",
"]. c #BCDAE7",
"[. c #B3D8EA",
"{. c #B5D9EB",
"}. c #AECBF2",
"|. c #A3D0F5",
" X c #A3D0F6",
".X c #A7D4F6",
"XX c #A7D5F6",
"oX c #A7D4F7",
"OX c #ABD0F4",
"+X c #ABD1F4",
"@X c #ADD8F7",
"#X c #ACD8F8",
"$X c #B0DCF9",
"%X c #B1DCF9",
"&X c #B1DDF9",
"*X c #B5DFFA",
"=X c #A3E1E1",
"-X c #B4E1E6",
";X c #B4E2E6",
":X c #B4E8EA",
">X c #B3EEEF",
",X c #B7E0F4",
"<X c #B5E0FA",
"1X c #B9E3FB",
"2X c #B9E3FC",
"3X c #BDE6FC",
"4X c #BDE7FC",
"5X c #B4F1F2",
"6X c #C0C0C0",
"7X c #C1C1C1",
"8X c gray77",
"9X c #C5C5C5",
"0X c gray78",
"qX c gray79",
"wX c #CBCBCB",
"eX c gray81",
"rX c #D0CFCF",
"tX c #CFD0CF",
"yX c #D0D0CF",
"uX c #CFCFD0",
"iX c #CFD0D0",
"pX c #D0D0D0",
"aX c gray83",
"sX c #D5D5D5",
"dX c #D8D8D8",
"fX c gray86",
"gX c #DDDDDD",
"hX c gray87",
"jX c #C3DDF7",
"kX c #C0E9FD",
"lX c #C1E9FD",
"zX c #C4EBFE",
"xX c #C4ECFE",
"cX c #C8ECFD",
"vX c #C9ECFD",
"bX c #CEEFFE",
"nX c #D2E6F9",
"mX c #D5E7F9",
"MX c #D5E7FA",
"NX c #D7F1FE",
"BX c #D7F2FE",
"VX c #DDF3FE",
"CX c #DCF4FE",
"ZX c #DDF4FE",
"AX c gray88",
"SX c #E7E7E7",
"DX c #E8E7E7",
"FX c #E7E8E7",
"GX c #E8E8E7",
"HX c #E7E7E8",
"JX c #E7E8E8",
"KX c gray96",
"LX c gray98",
"PX c None",
/* pixels */
"PXPXPXPXPXPXPXPXPXPXPXPXPXPXPXPXPXPXPXPXPXPXPXPXPXPXPXPXPXPXPXPX",
"PXPXPXPXPXPXPXPXPXPXPXPXPXPXPXPXPXPXPXPXPXPXPXPXPXPXPXPXPXPXPXPX",
"PXPXPX                                                    PXPXPX",
"PXPX  y.}.}.D 8 7 7 7 7 7 7 7 7 7 7 7 7 7 7 7 7 8 D }.}.y.  PXPX",
"PXPX  y V B 0 $.$.$.$.$.$.$.$.$.$.$.$.$.$.$.$.$.$.9 B . u   PXPX",
"PXPX  p L L q -.-.-.-.-.-.-.-.-.-.-.-.-.-.-.-.-.-.q K 5 i   PXPX",
"PXPX  s P P a |  ...o.O.+.@.;.i.p.i.;.@.+.O.o... .a P P d   PXPX",
"PXPX  g T R M 0X0X0X0X0X0X0X0X0X0X0X0X0X0X0X0X0X0XN R Y f   PXPX",
"PXPX  j E Q Z rXuXtXiXpXrXiXeXpXuXrXuXeXuXtXeXrXyXC W W h   PXPX",
"PXPX  k ! ~ A #.%.*.=.3.f.h.z.x.=Xx.z.h.g.3.=.*.&.S ~ ~ k   PXPX",
"PXPX  l ^ ^ F AXAXAXAXAXAXAXAXAXAXAXAXAXAXAXAXAXAXG ^ ^ l   PXPX",
"PXPX  z ( / H SXSXJXHXHXSXGXDXHXHXDXFXDXSXDXSXGXDXJ ( ( x   PXPX",
"PXPX  c ` [ U 4.5.j.l.v.b.;X:X>X5X>X:X-X'.c.l.k.6.I ] ' v   PXPX",
"PXPX  b q.9._ KXKXKXKXKXKXKXKXKXKXKXKXKXKXKXKXKXKX) 0.0.n   PXPX",
"PXPX  m e.r.P.LXLXLXLXLXLXLXLXLXLXLXLXLXLXLXLXLXLXL.w.r.m   PXPX",
"PXPX  >.C.u.+XjXnXmXmXmXmXmXmXmXmXmXMXmXmXmXmXnXjXOXu.C.,.  PXPX",
"PXPX  1.D.S.S.S.A.S.Z.Z.Z.D.S.S.A.S.D.Z.S.S.S.D.A.A.D.D.<.  PXPX",
"PXPX  8.J.K.J.K.J.J.J.J.J.H.J.G.J.J.J.J.J.G.G.F.G.J.H.J.7.  PXPX",
"PXPX  t.U.I.t 6 & & & & & & & & & & & & & & & & 6 t U.I.t.  PXPX",
"PXPX  m. X Xr hXpX9X6X7X8X0XwXeXaXdXfXgXgXfXsXeXqXr |. Xn.  PXPX",
"PXPX  B.XX.X:.hXpX{ + # @ } wXeXaXdXfXgXgXfXsXeXqX:..XoXN.  PXPX",
"PXPX  W.#X#Xs.hXpX* - : ; = wXeXaXdXfXgXgXfXsXeXqXa.#X@XV.  PXPX",
"PXPX  !.&X$XM.hXpX: 1 3 3 > wXeXaXdXfXgXgXfXsXeXqXd.%X&XQ.  PXPX",
"PXPX  /.*X<XY.hXpX, 2 3 4 < wXeXaXdXfXgXgXfXsXeXqXT.*X<X(.  PXPX",
"PXPX  _.1X1XR.hXpX, 2 3 4 < wXeXaXdXfXgXgXfXsXeXqXE.2X1X).  PXPX",
"PXPX  `.3X4X,XhXpX, 2 3 4 < wXeXaXdXfXgXgXfXsXeXqX,X3X~.2.  PXPX",
"PXPX  [.lXkXcXhXpX, 2 3 4 < wXeXaXdXfXgXgXfXsXeXqXvX^.e % PXPXPX",
"PXPX  {.zXxXbXBXCXCXZXZXZXZXZXZXCXVXVXZXCXVXZXCXNX].X.$ PXPXPXPX",
"PXPX  w O O o o o o O O o O O O O o o O O O O O o O X PXPXPXPXPX",
"PXPXPX                                              PXPXPXPXPXPX",
"PXPXPXPXPXPXPXPXPXPXPXPXPXPXPXPXPXPXPXPXPXPXPXPXPXPXPXPXPXPXPXPX",
"PXPXPXPXPXPXPXPXPXPXPXPXPXPXPXPXPXPXPXPXPXPXPXPXPXPXPXPXPXPXPXPX"
};
