/* XPM */
static char *save_all[] = {
/* columns rows colors chars-per-pixel */
"32 32 149 2",
"   c #0C0D35",
".  c #03033F",
"X  c #11153D",
"o  c #060641",
"O  c #090945",
"+  c #0D0D49",
"@  c #141841",
"#  c #181B44",
"$  c #12124E",
"%  c #1B1E48",
"&  c #161651",
"*  c #1B1B54",
"=  c #1E224C",
"-  c #1D2B54",
";  c #212353",
":  c #262A54",
">  c #24245A",
",  c #212F58",
"<  c #2A2D5A",
"1  c #24325C",
"2  c #2F325C",
"3  c #072764",
"4  c #12316B",
"5  c #18366F",
"6  c #2F2F64",
"7  c #2C3463",
"8  c #2B3A63",
"9  c #333660",
"0  c #373B64",
"q  c #313F68",
"w  c #203C74",
"e  c #3E3E70",
"r  c #34426C",
"t  c #3C4069",
"y  c #284479",
"u  c #3C4A73",
"i  c #304B7E",
"p  c #42456E",
"a  c #414374",
"s  c #474B72",
"d  c #494C7A",
"f  c #4C5077",
"g  c #44527A",
"h  c #48577E",
"j  c #51547D",
"k  c #54587E",
"l  c #4E5C82",
"z  c #565682",
"x  c #555884",
"c  c #5A5B83",
"v  c #536187",
"b  c #5D6186",
"n  c #57658A",
"m  c #5A658B",
"M  c #5C698F",
"N  c #526893",
"B  c #5F6C90",
"V  c #63648B",
"C  c #74748E",
"Z  c #616E93",
"A  c #6B6C92",
"S  c #647295",
"D  c #6D7193",
"F  c #64769B",
"G  c #697799",
"H  c #6C7A9B",
"J  c #727296",
"K  c #7C7C94",
"L  c #757699",
"P  c #737B9C",
"I  c #7B7C9E",
"U  c #6B7EA3",
"Y  c #7B7BA2",
"T  c #76809F",
"R  c #7584A5",
"E  c #7B83A3",
"W  c #7C88A7",
"Q  c #7B8AAA",
"!  c #85859A",
"~  c #89899E",
"^  c #8284A4",
"/  c #8E8EA1",
"(  c #8585AA",
")  c #818EAC",
"_  c #8C8CAB",
"`  c #8491AE",
"'  c #9393A5",
"]  c #9292AD",
"[  c #9B9BAB",
"{  c #8D8DB1",
"}  c #8494B2",
"|  c #8D97B1",
" . c #8A99B6",
".. c #8E9DB9",
"X. c #9595B3",
"o. c #939AB5",
"O. c #9C9CB6",
"+. c #9797B8",
"@. c #909FBA",
"#. c #9C9CBB",
"$. c #94A2BC",
"%. c #9CA5BD",
"&. c #A0A0AF",
"*. c #A5A5B3",
"=. c #AAAAB6",
"-. c #A3A3BC",
";. c #A8A9BF",
":. c #9F9FC0",
">. c #99A7C0",
",. c #9DAAC2",
"<. c #A4A4C3",
"1. c #A2AEC5",
"2. c #ACACC3",
"3. c #ACACC9",
"4. c #A4B0C7",
"5. c #A9B0C4",
"6. c #A7B3C8",
"7. c #AAB5CA",
"8. c #AEB9CD",
"9. c #B1B1C6",
"0. c #B5B5CB",
"q. c #B1BACE",
"w. c #BBBBCD",
"e. c #B5B5D1",
"r. c #B4BED0",
"t. c #BBBBD2",
"y. c #BDBDD8",
"u. c #B6C0D2",
"i. c #BBC4D5",
"p. c #C3C3D3",
"a. c #C8C8D7",
"s. c #C4C4D8",
"d. c #C4CCDA",
"f. c #CBCBDA",
"g. c #CAD1DE",
"h. c #D2D2DD",
"j. c #CED5E1",
"k. c #D4D6E2",
"l. c #D3D9E4",
"z. c #DADBE5",
"x. c #DDDFE8",
"c. c #DDE1EA",
"v. c #E4E5EC",
"b. c #E9E9EF",
"n. c #E6E9F0",
"m. c #EBECF1",
"M. c #F2F2F6",
"N. c #FFFFFF",
"B. c None",
/* pixels */
"B.B.B.B.B.B.B.2.;.-.-.-.O.X.] _ _ ^ ^ I L J A A V V c z a 7 B.B.",
"B.B.B.B.B.B.2.m.n.v.N.N.l.l.l.l.N.N.N.N.N.N.N.N.N.N.N.N.u.q.a B.",
"B.B.B.B.B.B.2.v.z.l.N.N.3 w y i N.N.N.N.N.N.N.N.N.N.N.N.$...( & ",
"B.B.B.B.B.B.-.c.l.j.N.N.4 N F R N.N.N.N.N.N.N.N.N.N.N.N... .E * ",
"B.B.B.B.B.B.-.c.j.g.N.N.5 U Q  .N.N.N.N.N.N.N.N.N.N.N.N. .} D * ",
"B.B.B.B.B.B.O.z.g.d.N.N.i } $.4.N.N.N.N.N.N.N.N.N.N.N.N.} R V & ",
"B.2.;.-.-.-.O.X.] _ _ ^ ^ I L J A A V V c z a 7 N.N.N.N.R H b & ",
"2.m.n.v.N.N.l.l.l.l.N.N.N.N.N.N.N.N.N.N.N.N.u.q.a N.N.v.G S c & ",
"2.v.z.l.N.N.3 w y i N.N.N.N.N.N.N.N.N.N.N.N.$...( & 5.%.S B j $ ",
"-.c.l.j.N.N.4 N F R N.N.N.N.N.N.N.N.N.N.N.N... .E * G S B m f $ ",
"-.c.j.g.N.N.5 U Q  .N.N.N.N.N.N.N.N.N.N.N.N. .} D * Z M n v s $ ",
"O.z.g.d.N.N.i } $.4.N.N.N.N.N.N.N.N.N.N.N.N.} R V & M n v l p $ ",
"X.l.d.d.N.N.} r.i.g.N.N.N.N.N.N.N.N.N.N.N.N.R H b & P H l h t + ",
"] k.d.i.N.N.N.N.N.N.N.N.N.N.N.N.N.N.N.N.N.v.G S c & p.w.h g 0 + ",
"_ j.i.i.x.z.z.l.l.k.k.j.g.g.g.d.d.d.d.i.5.%.S B j $ w.0.g u 9 + ",
"_ g.u.r.q.8.7.6.4.1.,.>.$.$... . .} R H G S B m f $ 0.9.u u 2 O ",
"^ d.r.q.8.7.6.1.,.,.%.$.$... .} W H G S Z M n v s $ { 2.u r < O ",
"^ d.8.7.7.4.1.,.>.$.$.@. .` W R H G S Z M n v l p $ -.;.r r : O ",
"I d.7.6.i.i.u.r.q.7.1.%.$.o.| ` ) W E T P H l h t + X.-.q 8 ; O ",
"L i.6.1.N.N.N.N.M.m.v.v.x.z.k.h.h.f.a.p.p.w.h g 0 + _ O.8 8 = o ",
"J i.1.,.N.N.M.m.b.v.v.x.z.k.h.f.f.a.p.t.w.0.g u 9 + O.O.8 1 % o ",
"A u.,.>.N.M.m.b.v.v.x.z.k.h.f.a.a.p.w.w.0.9.u u 2 O Y X.1 1 # o ",
"A r.>.$.M.y.t.e.e.0.3.3.<.<.<.#.#.+.+.X.{ 2.u r < O _ ] , - @ o ",
"V q.$. .m.z.k.k.h.f.a.s.p.t.w.0.9.2.2.<.-.;.r r : O _ _ - - X o ",
"b 8. .) v.f.a.s.p.t.t.0.0.3.2.<.-.-.#.O.X.-.q 8 ; O C C X X   . ",
"c 6.) W v.t.t.0.0.3.3.<.<.-.#.#.+.X.X._ _ O.8 8 = o * * . . . B.",
"x ,.W R z.k.h.h.f.a.p.p.w.w.0.9.2.;.-.-.O.O.8 1 % o B.B.B.B.B.B.",
"j $.R H k.3.<.<.:.#.#.+.X.X.{ _ ( ( ^ Y Y X.1 1 # o B.B.B.B.B.B.",
"d o.H G h.p.p.w.w.0.9.2.2.;.-.#.O.X.X.] _ ] , - @ o B.B.B.B.B.B.",
"a | G S f.a.p.p.w.w.0.9.2.2.;.-.O.O.X.] _ _ - - X o B.B.B.B.B.B.",
"e ^ c k =.*.*.&.[ [ ' ' / / ~ ! ! K K K C C X X   . B.B.B.B.B.B.",
"B.6 > * < > > > > > > > > > ; ; * * * * * * . . . B.B.B.B.B.B.B."
};
