/* XPM */
static char *top[] = {
/* columns rows colors chars-per-pixel */
"26 23 44 1",
"  c black",
". c gray1",
"X c #060606",
"o c #0B0B0B",
"O c #100F10",
"+ c #101010",
"@ c #151515",
"# c #1B1A1A",
"$ c #201F20",
"% c #202020",
"& c #262625",
"* c gray17",
"= c gray19",
"- c #353434",
"; c #383737",
": c #486E9F",
"> c #2B27E7",
", c #2855EC",
"< c #087CF4",
"1 c #0B7EFA",
"2 c #0F85FD",
"3 c #138BFD",
"4 c #1A90FF",
"5 c #1E95FF",
"6 c #2A9EFF",
"7 c #32A3FE",
"8 c #3BADFF",
"9 c #41B1FF",
"0 c #45B5FF",
"q c #4CBCFF",
"w c #51C0FF",
"e c #53C3FF",
"r c #5BC9FF",
"t c #5FCDFF",
"y c #64D0FF",
"u c #6AD9FF",
"i c #6DDBFF",
"p c #74E1FF",
"a c #79E5FF",
"s c #7DE9FF",
"d c #82ECFF",
"f c #89EFFF",
"g c #91F0FF",
"h c gray100",
/* pixels */
"hhhhhhhhhhhhhhhhhhhhhhhhhh",
"hhhhhhhhhhhhhhhhhhhhhhhhhh",
"hhhhhhhhh,,,,,,,,,,>hhhhhh",
"hhhhhhhh,sitq8642<>;hhhhhh",
"hhhhhhh,dpyw07531>h-hhhhhh",
"hhhhhh,faurq8631>hh=hhhhhh",
"hhhhh,gdptw9752>hhh*hhhhhh",
"hhhh,,,,,,,,,,>hhhh&hhhhhh",
"hhhh#hhhh%hhhh%hhhh%hhhhhh",
"hhhh#hhhh#hhhh#hhhh#hhhhhh",
"hhhh@hhhh@hhhh@hhhh@hhhhhh",
"hhhhOhhhh+hhhh+hhhhohhhhhh",
"hhhhohhhhooooooooooohhhhhh",
"hhhh.hhhXhhhhhXhhh.Xhhhhhh",
"hhhh.hh.hhhhhh.hh.:hhhhhhh",
"hhhh.h.hhhhhhh.h.:hhhhhhhh",
"hhhh..hhhhhhhh..:hhhhhhhhh",
"hhhh...........:hhhhhhhhhh",
"hhhhhhhhhhhhhhhhhhhhhhhhhh",
"hhhhhhhhhhhhhhhhhhhhhhhhhh",
"hhhhhhhhhhhhhhhhhhhhhhhhhh",
"hhhhhhhhhhhhhhhhhhhhhhhhhh",
"hhhhhhhhhhhhhhhhhhhhhhhhhh"
};
