/* XPM */
static char *undo[] = {
/* columns rows colors chars-per-pixel */
"32 32 72 1",
"  c #0043BE",
". c #0044C2",
"X c #0047CA",
"o c #0049CE",
"O c #0049D0",
"+ c #004BD4",
"@ c #004CD6",
"# c #004CD8",
"$ c #004DDA",
"% c #004EDC",
"& c #004EDE",
"* c #004FE0",
"= c #0050E2",
"- c #0050E4",
"; c #0051E6",
": c #0052E8",
"> c #0053EA",
", c #0053EC",
"< c #0054EE",
"1 c #0055F0",
"2 c #0055F2",
"3 c #0056F4",
"4 c #0057F6",
"5 c #0058F8",
"6 c #0058FA",
"7 c #0059FC",
"8 c #005AFE",
"9 c #015BFF",
"0 c #035CFF",
"q c #055DFF",
"w c #075FFF",
"e c #0161FF",
"r c #0960FF",
"t c #0D62FF",
"y c #0D6EFF",
"u c #1366FF",
"i c #1568FF",
"p c #1769FF",
"a c #1F6CF9",
"s c #1B6BFF",
"d c #1F6EFF",
"f c #3A78EA",
"g c #216FFF",
"h c #2572FF",
"j c #2975FF",
"k c #2B76FF",
"l c #2F78FF",
"z c #3C7EF6",
"x c #337BFF",
"c c #397FFF",
"v c #0F86FF",
"b c #1388FF",
"n c #3F83FF",
"m c #668ED8",
"M c #7797D3",
"N c #7399D3",
"B c #5083E0",
"V c #5F8EE5",
"C c #4385FF",
"Z c #4989FF",
"A c #5994FF",
"S c #759BE1",
"D c #75A6FF",
"F c #819FD5",
"G c #84A5E2",
"H c #96B2E4",
"J c #8FB7FF",
"K c #A6BDE6",
"L c #A9C7FF",
"P c #C5DAFF",
"I c #DFEAFF",
"U c None",
/* pixels */
"UUUUUUUUUUUUUUUUUUUUUUUUUUUUUUUU",
"UUUUUUUUUUUUUUUUUUUUUUUUUUUUUUUU",
"UUUUUUUUUUUUUUUUUUUUUUUUUUUUUUUU",
"UUUUUUUUUUUUUUUUUUUUUUUUUUUUUUUU",
"UUUUUUUUUUUUUUUUUUUUUUUUUUUUUUUU",
"UUUUUUUUUUUUUUUUUUUUUUUUUUUUUUUU",
"UUUUUUUUUbvUUUUUUUUUUUUUUUUUUUUU",
"UUUUUUUUyNyeUUUUUUUUUUUUUUUUUUUU",
"UUUUUUUwFIKw7UUUUUUUUUUUUUUUUUUU",
"UUUUUUqMPPPHq5UUUUUUUUUUUUUUUUUU",
"UUUUU8mLLLLLG84UUUUUUUUUUUUUUUUU",
"UUUU7BJJJJJJJS72UUUUUUUUUUUUUUUU",
"UUU5fDDDDDDDDDV51UUUUUUUUUUUUUUU",
"UU3aAAAAAAAAAAAz3,UUUUUUUUUUUUUU",
"U1uZZZZZZZZZZZZZj1:UUUUUUUUUUUUU",
",,,,,,,lCCCCr,,,,,,UUUUUUUUUUUUU",
"UUUUUU:innnnd>#UUUUUUUUUUUUUUUU>",
"UUUUUU=9ccccc4-UUUUUUUUUUUUUU-;-",
"UUUUUUU=lxxxxl1=UUUUUUUUUUUU===U",
"UUUUUUU&wlllllk<&#UUUUUUUU&&&&+U",
"UUUUUUU#*gkkkkkkt-$#####$$>8*+UU",
"UUUUUUUU@;ghhhhhhhu83,,80sr#+UUU",
"UUUUUUUUU@;pggggggggggggs<#oUUUU",
"UUUUUUUUUU+%8sssssssssu6%@ UUUUU",
"UUUUUUUUUUUO#%18wwww4,#@XUUUUUUU",
"UUUUUUUUUUUUUX+#####@O.UUUUUUUUU",
"UUUUUUUUUUUUUUUUUUUUUUUUUUUUUUUU",
"UUUUUUUUUUUUUUUUUUUUUUUUUUUUUUUU",
"UUUUUUUUUUUUUUUUUUUUUUUUUUUUUUUU",
"UUUUUUUUUUUUUUUUUUUUUUUUUUUUUUUU",
"UUUUUUUUUUUUUUUUUUUUUUUUUUUUUUUU",
"UUUUUUUUUUUUUUUUUUUUUUUUUUUUUUUU"
};
