/* XPM */
static char *up[] = {
/* columns rows colors chars-per-pixel */
"32 32 118 2",
"   c #3262BB",
".  c #3262BC",
"X  c #3263BE",
"o  c #3265C3",
"O  c #3265C4",
"+  c #3265C6",
"@  c #3266C7",
"#  c #3266C8",
"$  c #3267C9",
"%  c #3268CB",
"&  c #3268CC",
"*  c #3269CE",
"=  c #3B6ECC",
"-  c #396DCE",
";  c #3269D0",
":  c #3269D1",
">  c #326AD3",
",  c #326BD4",
"<  c #326CD6",
"1  c #396FD1",
"2  c #326CD8",
"3  c #326DDB",
"4  c #326DDC",
"5  c #3C70D0",
"6  c #3F72D2",
"7  c #3271E4",
"8  c #3272E6",
"9  c #3B77E6",
"0  c #3272E8",
"q  c #3272E9",
"w  c #3273EB",
"e  c #3277F6",
"r  c #3278F9",
"t  c #327AFE",
"y  c #387EFF",
"u  c #4F7DD0",
"i  c #3B80FF",
"p  c #3D81FD",
"a  c #3C81FF",
"s  c #5785D8",
"d  c #5987DC",
"f  c #7E9FDD",
"g  c #568AE9",
"h  c #5B8FEE",
"j  c #5C8EEC",
"k  c #5E91EE",
"l  c #4984F0",
"z  c #4D87F3",
"x  c #4986F5",
"c  c #4A86F4",
"v  c #4F89F2",
"b  c #4D88F6",
"n  c #4786FA",
"m  c #4083FF",
"M  c #4284FD",
"N  c #4385FD",
"B  c #4184FF",
"V  c #4486FF",
"C  c #4987FA",
"Z  c #4D8AFA",
"A  c #558CF1",
"S  c #5E92F1",
"D  c #6693E6",
"F  c #6D97E4",
"G  c #6293ED",
"H  c #6996E8",
"J  c #6D99EB",
"K  c #729AE2",
"L  c #729BE4",
"P  c #759DE6",
"I  c #7A9FE4",
"U  c #7EA0E0",
"Y  c #7AA0E5",
"T  c #829FD6",
"R  c #83A3DC",
"E  c #82A3DF",
"W  c #80A3E1",
"Q  c #83A6E6",
"!  c #87A8E4",
"~  c #8AA8E0",
"^  c #8BAAE2",
"/  c #8EABE2",
"(  c #8FACE2",
")  c #8EACE4",
"_  c #8AABE8",
"`  c #92AFE6",
"'  c #91AFE8",
"]  c #94B1E5",
"[  c #9BB4E4",
"{  c #9BB6E6",
"}  c #97B4EA",
"|  c #9EB8E8",
" . c #9FB8E8",
".. c #A3BBE6",
"X. c #A8BFEB",
"o. c #AFC4EB",
"O. c #AEC4EC",
"+. c #B0C5EB",
"@. c #B3C8ED",
"#. c #B4C8EC",
"$. c #B7CBED",
"%. c #BDCFF0",
"&. c #C4D4F1",
"*. c #C8D6F0",
"=. c #C8D7F2",
"-. c #CBD8F2",
";. c #D2DEF5",
":. c #D4DFF5",
">. c #D4E0F4",
",. c #DBE4F5",
"<. c #DCE5F6",
"1. c #DDE6F6",
"2. c #E6EDF9",
"3. c #EDF2FB",
"4. c #EEF2FA",
"5. c #F6F8FC",
"6. c gray100",
"7. c None",
/* pixels */
"7.7.7.7.7.7.7.7.7.7.7.7.7.7.7.7.7.7.7.7.7.7.7.7.7.7.7.7.7.7.7.7.",
"7.7.7.7.7.7.7.7.7.7.7.7.7.* * & & & % 7.7.7.7.7.7.7.7.7.7.7.7.7.",
"7.7.7.7.7.7.7.7.7.7.: : ; * , 4 4 , & & & & 7.7.7.7.7.7.7.7.7.7.",
"7.7.7.7.7.7.7.7.> : , 7 e y A ~ ~ U i r 7 : & % 7.7.7.7.7.7.7.7.",
"7.7.7.7.7.7.7.: : q y [ *.4.5.5.5.5.5.,...D w & & + 7.7.7.7.7.7.",
"7.7.7.7.7.7.: 2 t / 1.4.4.4.4.4.4.4.3.3.3.3.+.l 2 & @ 7.7.7.7.7.",
"7.7.7.7.7.: 3 v #.2.2.2.2.2.2.` ` ` 2.2.2.2.2.>.K 2 & o 7.7.7.7.",
"7.7.7.7.: < z &.<.<.<.<.<.<.` 6.6.6.` <.<.<.<.<.:.F 2 & 7.7.7.7.",
"7.7.7.; * t o.;.;.;.;.;.;.` 6.6.6.6.6.` ;.;.;.;.;.-.g & $ 7.7.7.",
"7.7.7.* 0 ( =.=.=.=.=.=.` 6.6.6.6.6.6.6.` =.=.=.=.=.o.w & 7.7.7.",
"7.7.& : x $.%.%.%.%.%.` 6.6.6.6.6.6.6.6.6.` %.%.%.%.%.R : $ 7.7.",
"7.7.& 7 ^ @.@.@.@.@.` 6.6.6.6.6.6.6.6.6.6.6.` @.@.O.{ E 7 & 7.7.",
"7.7.& e  .X.X.X.X.` 6.6.6.6.6.6.6.6.6.6.6.6.6.` L i i i e & X 7.",
"7.& & c | | | | ` 6.6.6.6.6.6.6.6.6.6.6.6.6.6.6.i i i i y & O 7.",
"7.& , h ` ` ` ` 6.6.6.6.6.6.6.6.6.6.6.6.6.6.6.6.6.a i i i : $ 7.",
"7.& 4 H ! ! ! 6.6.6.6.6.6.` 6.6.6.6.6.G 6.6.6.6.6.6.a i i 4 # 7.",
"7.& 4 k I I I 6.6.6.6.6.G G 6.6.6.6.6.a a 6.6.6.6.6.a i i 4 # 7.",
"7.& , b G G G G 6.6.6.a a a 6.6.6.6.6.a a a 6.6.6.a a a a : # 7.",
"7.% & p C C C C C C C C n N 6.6.6.6.6.a a a a a a a a m i & o 7.",
"7.7.& r M M M M M M B B B B 6.6.6.6.6.a a a a a a B B B r & . 7.",
"7.7.& 8 V V V V V V V V V V 6.6.6.6.6.a a a a a a V V V 8 & 7.7.",
"7.7.& : C Z Z Z Z Z Z Z a a 6.6.6.6.6.a a Z Z Z Z Z Z C : # 7.7.",
"7.7.7.& 9 S S S S S S S S S 6.6.6.6.6.S S S S S S S S 9 & . 7.7.",
"7.7.7.% & j J J J J J J J J 6.6.6.6.6.J J J J J J J j & # 7.7.7.",
"7.7.7.7.& 1 P Y Y Y Y Y Y Y 6.6.6.6.6.Y Y Y Y Y Y P 1 & 7.7.7.7.",
"7.7.7.7.7.& 6 W Q Q Q Q Q Q Q 6.6.6.Q Q Q Q Q Q W 6 &   7.7.7.7.",
"7.7.7.7.7.7.& 5 f _ _ _ _ _ _ _ _ _ _ _ _ _ _ f 5 &   7.7.7.7.7.",
"7.7.7.7.7.7.7.& & d ) ' ' ' ' ' ' ' ' ' ' ) d & &   7.7.7.7.7.7.",
"7.7.7.7.7.7.7.7.$ & - s T ] } } } } ] T s - & # 7.7.7.7.7.7.7.7.",
"7.7.7.7.7.7.7.7.7.7.$ & & & = u u = & & & # . 7.7.7.7.7.7.7.7.7.",
"7.7.7.7.7.7.7.7.7.7.7.7.X O $ # # # o . 7.7.7.7.7.7.7.7.7.7.7.7.",
"7.7.7.7.7.7.7.7.7.7.7.7.7.7.7.7.7.7.7.7.7.7.7.7.7.7.7.7.7.7.7.7."
};
