/* XPM */
static char *wireframe[] = {
/* columns rows colors chars-per-pixel */
"28 28 3 1",
"  c black",
". c gray28",
"X c gray100",
/* pixels */
"XXXXXXXXXXXXXXXXXXXXXXXXXXXX",
"XXXXXXXXXXXXXXXXXXXXXXXXXXXX",
"XXXXXXXXXXXXXXXXXXXXXXXXXXXX",
"XXXXXXXXXXXXXXXXXXXXXXXXXXXX",
"XXXXXXXXX.             .XXXX",
"XXXXXXXXX.             .XXXX",
"XXXXXXX   XXXXXXXXXXXX  XXXX",
"XXXXXX XX XXXXXXXXXX  X XXXX",
"XXXXX XXX XXXXXXXXX XXX XXXX",
"XXX..              XXXX XXXX",
"XXX..              XXXX XXXX",
"XXX  XXXX XXXXXXXX XXXX XXXX",
"XXX  XXXX XXXXXXXX XXXX XXXX",
"XXX  XXXX XXXXXXXX XXXX XXXX",
"XXX  XXXX XXXXXXXX XXXX XXXX",
"XXX  XXXX XXXXXXXX XXXX XXXX",
"XXX  XXXX XXXXXXXX XXXX XXXX",
"XXX  XXXX XXXXXXXX XXXX XXXX",
"XXX  XXXX               XXXX",
"XXX  XX  XXXXXXXXX XXX XXXXX",
"XXX  XX  XXXXXXXXX XXX XXXXX",
"XXX  X XXXXXXXXXXX X  XXXXXX",
"XXX   XXXXXXXXXXXX  XXXXXXXX",
"XXX..             .XXXXXXXXX",
"XXXXXXXXXXXXXXXXXXXXXXXXXXXX",
"XXXXXXXXXXXXXXXXXXXXXXXXXXXX",
"XXXXXXXXXXXXXXXXXXXXXXXXXXXX",
"XXXXXXXXXXXXXXXXXXXXXXXXXXXX"
};
