/* XPM */
static char *zoomin[] = {
/* columns rows colors chars-per-pixel */
"32 32 213 2",
"   c black",
".  c gray6",
"X  c #180901",
"o  c #1D0B01",
"O  c gray11",
"+  c gray12",
"@  c #2E1101",
"#  c #2E1802",
"$  c #301201",
"%  c #311301",
"&  c #321201",
"*  c #321301",
"=  c #371C02",
"-  c #202020",
";  c gray13",
":  c #282828",
">  c gray18",
",  c #353535",
"<  c #393939",
"1  c #3A3A3A",
"2  c #3C3C3C",
"3  c #572803",
"4  c #542B04",
"5  c #5C2F04",
"6  c #5D3004",
"7  c #5E3004",
"8  c #5E3104",
"9  c #5F3104",
"0  c #6D2D04",
"q  c #702D04",
"w  c #722E04",
"e  c #732F04",
"r  c #6B3505",
"t  c #733004",
"y  c #753104",
"u  c #773204",
"i  c #783304",
"p  c #7C3605",
"a  c #7E3705",
"s  c #603D26",
"d  c #6E4727",
"f  c #002864",
"g  c #324856",
"h  c #1D4B69",
"j  c #0C517F",
"k  c #3B5464",
"l  c #37607B",
"z  c #414141",
"x  c gray27",
"c  c gray30",
"v  c #505050",
"b  c #515151",
"n  c #555555",
"m  c #5A5A5A",
"M  c #5B5B5B",
"N  c gray36",
"B  c #5D5D5D",
"V  c #585D60",
"C  c #676767",
"Z  c #686868",
"A  c #6D6D6D",
"S  c #7E7E7E",
"D  c #803805",
"F  c #813905",
"G  c #833A05",
"H  c #843B05",
"J  c #853C05",
"K  c #893F05",
"L  c #8B4005",
"P  c #8D4105",
"I  c #8E4206",
"U  c #8F4306",
"Y  c #914406",
"T  c #934506",
"R  c #974906",
"E  c #994A06",
"W  c #9B4B06",
"Q  c #9D4C06",
"!  c #9F4D06",
"~  c #A04E07",
"^  c #A15007",
"/  c #A45107",
"(  c #A65307",
")  c #A75307",
"_  c #A85407",
"`  c #AA5607",
"'  c #AC5707",
"]  c #AE5707",
"[  c #135C8C",
"{  c #005F9E",
"}  c #264C85",
"|  c #1B6A9E",
" . c #0045AC",
".. c #0062A4",
"X. c #1167A1",
"o. c #1475B7",
"O. c #3C69AD",
"+. c #2373A9",
"@. c #2576AC",
"#. c #2B7BB1",
"$. c #597283",
"%. c #4F6A92",
"&. c #4A7C9E",
"*. c #657FA7",
"=. c #0047D0",
"-. c #004EDC",
";. c #0053D0",
":. c #0657D1",
">. c #0075C3",
",. c #157FC6",
"<. c #1364DF",
"1. c #0059F4",
"2. c #0057FF",
"3. c #005AFF",
"4. c #005DFF",
"5. c #0061FF",
"6. c #0063FF",
"7. c #0065FF",
"8. c #1C73F5",
"9. c #387DE4",
"0. c #227AFF",
"q. c #7F8182",
"w. c #728997",
"e. c #5A90B4",
"r. c #1788D4",
"t. c #2788C9",
"y. c #2C8CCC",
"u. c #3F95CF",
"i. c #2F96DA",
"p. c #2C98DE",
"a. c #3596D7",
"s. c #3097DC",
"d. c #199CF7",
"f. c #3787FF",
"g. c #249FFF",
"h. c #32A0E9",
"j. c #35A9F6",
"k. c #35A6FE",
"l. c #37AEFE",
"z. c #3EAFFA",
"x. c #5D89CA",
"c. c #4C86DE",
"v. c #72A7CB",
"b. c #6DADD8",
"n. c #74B3DE",
"m. c #5D92E1",
"M. c #4C94FF",
"N. c #42A3E2",
"B. c #46A4E4",
"V. c #43ABFF",
"C. c #44ABFF",
"Z. c #4AAEFF",
"A. c #4BB1F6",
"S. c #4DB0FF",
"D. c #7DC3F1",
"F. c #74C3FF",
"G. c #848484",
"H. c gray55",
"J. c #8D9296",
"K. c gray57",
"L. c #909293",
"P. c #979797",
"I. c #9B9B9B",
"U. c gray61",
"Y. c gray62",
"T. c #91AABB",
"R. c gray65",
"E. c #AAAAAA",
"W. c #AFAFAF",
"Q. c #B2B2B2",
"!. c gray70",
"~. c gray71",
"^. c #B9B9B9",
"/. c #BCBCBC",
"(. c gray",
"). c gray75",
"_. c #91AFC4",
"`. c #9CBDD2",
"'. c #84BDE4",
"]. c #BFC4C8",
"[. c #A8C4D7",
"{. c #8FCEF7",
"}. c #82C9F9",
"|. c #82CAFA",
" X c #85CEFF",
".X c #9FD1F2",
"XX c #9CD5FA",
"oX c #98D3FF",
"OX c #A4D9FF",
"+X c gray76",
"@X c gray77",
"#X c #C6C6C6",
"$X c #C8C8C8",
"%X c gray80",
"&X c #CDCDCD",
"*X c gray81",
"=X c #CCCED0",
"-X c #CFD5D9",
";X c gray82",
":X c #D0D2D3",
">X c #D2D2D2",
",X c #D1D3D4",
"<X c gray83",
"1X c #D5D5D5",
"2X c gray84",
"3X c #D7D7D7",
"4X c gainsboro",
"5X c #D4EEFF",
"6X c #D8EFFE",
"7X c gray88",
"8X c #E4E4E4",
"9X c #E9F6FF",
"0X c None",
/* pixels */
"0X0X0X0X0X0X0X0X0X0X0X0X0X0X0X0X0X0X0X0X0X0X0X0X0X0X0X0X0X0X0X0X",
"0X0X0X0X0X0X0X0X0X0X0X0X0X0X0X0X0X0X0X0X0X0X0X0X0X0X0X0X0X0X0X0X",
"0X0X0X0X0X0X0X0Xn P.(.3X8X3X(.P.n 0X0X0X0X0X0X0X0X0X0X0X0X0X0X0X",
"0X0X0X0X0X0X0XI.1X1X~.S A S ~.1X1XI.0X0X0X0X0X0X0X0X0X0X0X0X0X0X",
"0X0X0X0X0Xv Q.<XY.V g h j h g V Y.<XQ.v 0X0X0X0X0X0X0X0X0X0X0X0X",
"0X0X0X0X1 W.*Xq.k [ X.@.#.@.X.[ k q.*XW.1 0X0X0X0X0X0X0X0X0X0X0X",
"0X0X0X0XK.>XL.l { o.u.n.'.n.u.o.{ l L.>XK.0X0X0X0X0X0X0X0X0X0X0X",
"0X0X0Xc #X!.$...>.N..X%.*.%..XN.>...$.!.#Xc 0X0X0X0X0X0X0X0X0X0X",
"0X0X0XG.&XJ.| ,.h.XX6Xx.m.x.6XXXh.,.| J.&XG.0X0X0X0X0X0X0X0X0X0X",
"0X0X0XR.$Xw.o.B.}.5X9Xc.M.c.9X5X}.B.o.w.$XR.0X0X0X0X0X0X0X0X0X0X",
"0X0X0X^.+X&.y.D.f } O.9.f.9.O.} f D.y.&.+X^.0X0X0X0X0X0X0X0X0X0X",
"0X0X  /.@X+.a.{. .:.<.8.0.8.<.:. .{.a.+.@X/.  0X0X0X0X0X0X0X0X0X",
"0X0X0XR.%Xe.s.|.;.7.6.5.5.5.6.7.;.|.s.e.%XR.0X0X0X0X0X0X0X0X0X0X",
"0X0X0XH.&XT.r.A. XoXOX1.4.1.OXoX XA.r.T.&XH.0X0X0X0X0X0X0X0X0X0X",
"0X0X0XZ #X].t.0Xl.V.F.-.3.-.F.V.l.0Xt.].#XZ 0X0X0X0X0X0X0X0X0X0X",
"0X0X0X, U.;X_.0X0Xg.C.=.2.=.C.g.0X0X_.;XU., 0X0X0X0X0X0X0X0X0X0X",
"0X0X0X0XM Q.=Xv.0Xd.k.S.Z.S.k.d.0Xv.=XQ.m 0X0X0X0X0X0X0X0X0X0X0X",
"0X0X0X0X; Z ).,X`.p.0Xj.z.j.0Xp.`.:X).C - 0X0X0X0X0X0X0X0X0X0X0X",
"0X0X0X0X0X: N E.2X-X[.b.i.b.[.-X2XE.N b B . # 0X0X0X0X0X0X0X0X0X",
"0X0X0X0X0X0XO 2 Z R.>X4X7X4X>XR.Z 2 O B Z d ^ 4 0X0X0X0X0X0X0X0X",
"0X0X0X0X0X0X0X0X+ > < z x z < > + 0X0X. s K R / 5 0X0X0X0X0X0X0X",
"0X0X0X0X0X0X0X0X0X0X0X      0X0X0X0X0XX 0 p L E ( 7 0X0X0X0X0X0X",
"0X0X0X0X0X0X0X0X0X0X0X0X0X0X0X0X0X0X0X0X@ q a P W ) 6 0X0X0X0X0X",
"0X0X0X0X0X0X0X0X0X0X0X0X0X0X0X0X0X0X0X0X0X* w D I W _ 9 0X0X0X0X",
"0X0X0X0X0X0X0X0X0X0X0X0X0X0X0X0X0X0X0X0X0X0X& e F U Q ` 7 0X0X0X",
"0X0X0X0X0X0X0X0X0X0X0X0X0X0X0X0X0X0X0X0X0X0X0X$ t G Y ! ' 8 0X0X",
"0X0X0X0X0X0X0X0X0X0X0X0X0X0X0X0X0X0X0X0X0X0X0X0X% y H T ~ ] = 0X",
"0X0X0X0X0X0X0X0X0X0X0X0X0X0X0X0X0X0X0X0X0X0X0X0X0X% u J T r 0X0X",
"0X0X0X0X0X0X0X0X0X0X0X0X0X0X0X0X0X0X0X0X0X0X0X0X0X0X% i 3 0X0X0X",
"0X0X0X0X0X0X0X0X0X0X0X0X0X0X0X0X0X0X0X0X0X0X0X0X0X0X0Xo 0X0X0X0X",
"0X0X0X0X0X0X0X0X0X0X0X0X0X0X0X0X0X0X0X0X0X0X0X0X0X0X0X0X0X0X0X0X",
"0X0X0X0X0X0X0X0X0X0X0X0X0X0X0X0X0X0X0X0X0X0X0X0X0X0X0X0X0X0X0X0X"
};
